<svg width="50" height="50" viewBox="0 0 50 50" fill="none" xmlns="http://www.w3.org/2000/svg"><g clip-path="url(#clip0)" fill="#3E6680"><path d="M19.232 16.5a1.464 1.464 0 00.323 1.597l7.908 7.845c.285.284.658.425 1.031.425a1.46 1.46 0 001.032-.425l7.908-7.845a1.465 1.465 0 00-1.031-2.504h-2.609V1.367c0-.809-.656-1.465-1.465-1.465h-7.845c-.809 0-1.465.656-1.465 1.465v14.226h-2.433c-.594 0-1.128.358-1.354.906z"/><path d="M48.626 9.39c-.927-1.06-2.248-1.643-3.72-1.643h-8.182v4.927a4.379 4.379 0 013.742 2.71 4.38 4.38 0 01-.969 4.793l-7.908 7.845a4.366 4.366 0 01-3.095 1.275 4.367 4.367 0 01-3.095-1.275l-7.908-7.845a4.38 4.38 0 01-.968-4.793 4.378 4.378 0 013.567-2.694V7.747H9.317l-.359-2.685c-.386-2.893-2.4-5.16-4.585-5.16H1.758a1.465 1.465 0 100 2.93h2.615c.47 0 1.465.994 1.681 2.617l.527 3.954v.003l1.561 11.706 2.105 15.786c.185 1.386.898 2.684 2.006 3.655a6.05 6.05 0 002.811 1.398 5.353 5.353 0 00-.65 2.564 5.393 5.393 0 005.387 5.387 5.394 5.394 0 005.388-5.387c0-.885-.216-1.72-.596-2.458h7.676a5.353 5.353 0 00-.596 2.458 5.394 5.394 0 005.388 5.387 5.394 5.394 0 005.387-5.387c0-.885-.216-1.72-.596-2.458h3.838a1.465 1.465 0 100-2.93H16.14c-1.43 0-2.8-1.198-2.989-2.617l-.306-2.298h28.922c1.399 0 2.78-.534 3.888-1.505 1.109-.97 1.82-2.268 2.005-3.654l2.102-15.759c.194-1.459-.21-2.846-1.136-3.905z"/></g><defs><clipPath id="clip0"><path fill="#fff" d="M0 0h50v50H0z"/></clipPath></defs></svg>