<svg width="140" height="54" viewBox="0 0 140 54" fill="none" xmlns="http://www.w3.org/2000/svg"><mask id="path-1-inside-1" fill="#fff"><path d="M15.95 2.174A5 5 0 0120.073 0H134.44a5 5 0 015 5v44a5 5 0 01-5 5H20.074a5 5 0 01-4.125-2.174l-15.074-22a5 5 0 010-5.652l15.074-22z"/></mask><path d="M15.95 51.826l.412-.282-.413.282zM20.073.5H134.44v-1H20.074v1zM138.94 5v44h1V5h-1zm-4.5 48.5H20.074v1H134.44v-1zM16.362 51.544l-15.074-22-.825.565 15.074 22 .825-.566zM1.288 24.457l15.074-22-.825-.566-15.074 22 .825.566zm0 5.087a4.5 4.5 0 010-5.088l-.825-.565a5.5 5.5 0 000 6.218l.825-.566zM20.074 53.5a4.5 4.5 0 01-3.712-1.956l-.825.565a5.5 5.5 0 004.537 2.391v-1zM138.94 49a4.5 4.5 0 01-4.5 4.5v1a5.5 5.5 0 005.5-5.5h-1zM134.44.5a4.5 4.5 0 014.5 4.5h1a5.5 5.5 0 00-5.5-5.5v1zM20.074-.5a5.5 5.5 0 00-4.537 2.391l.825.565A4.5 4.5 0 0120.074.5v-1z" fill="#42495B" mask="url(#path-1-inside-1)"/></svg>