<svg width="725" height="557" viewBox="0 0 725 557" fill="none" xmlns="http://www.w3.org/2000/svg"><g filter="url(#filter0_d)"><circle cx="134.5" cy="190.5" r="104.5" fill="#fff"/></g><path d="M182.5 178.619c0 20.434-30.065 32.5-50.5 32.5s-45-16-45-54.5c0-31 39.065-27.5 59.5-27.5 20.435 0 36 29.065 36 49.5z" fill="url(#paint0_linear)" fill-opacity=".24"/><path d="M142.664 177.386v5.567c0 1.332 1.449 2.137 2.567 1.46l4.593-2.784c1.094-.664 1.091-2.258 0-2.919l-4.593-2.784c-1.125-.682-2.567.135-2.567 1.46zm6.274 2.783l-4.575 2.773.001-5.546 4.574 2.773z" fill="#3E6680"/><path d="M148.192 171.46a.855.855 0 00-.419 1.657 7.27 7.27 0 015.457 7.052c0 4.012-3.244 7.276-7.23 7.276s-7.23-3.264-7.23-7.276a7.27 7.27 0 015.457-7.052.855.855 0 00-.419-1.657 8.976 8.976 0 00-6.737 8.709c0 4.955 4.006 8.986 8.929 8.986s8.929-4.031 8.929-8.986a8.976 8.976 0 00-6.737-8.709z" fill="#3E6680"/><path d="M171.114 161.594h-50.228c-2.143 0-3.886 1.754-3.886 3.911v29.329c0 2.157 1.743 3.911 3.886 3.911h3.723a5.45 5.45 0 001.474 4.067h-.056c-2.674 0-4.849 2.189-4.849 4.88v3.891c0 1.06.857 1.922 1.909 1.922h13.862c.392 0 .757-.12 1.06-.324.304.204.668.324 1.06.324h13.862c.392 0 .756-.12 1.06-.324.303.204.668.324 1.059.324h13.862c1.053 0 1.91-.862 1.91-1.922v-3.891c0-2.691-2.175-4.88-4.849-4.88h-.056a5.447 5.447 0 001.473-4.067h3.724c2.142 0 3.886-1.754 3.886-3.911v-12.67a.853.853 0 00-.85-.855.853.853 0 00-.85.855v12.67a2.196 2.196 0 01-2.186 2.201h-4.103a5.469 5.469 0 00-1.089-1.71h4.83a.852.852 0 00.849-.855v-28.601a.851.851 0 00-.849-.855h-49.504a.852.852 0 00-.85.855v28.601c0 .472.381.855.85.855h4.83a5.43 5.43 0 00-1.089 1.71h-4.103a2.197 2.197 0 01-2.187-2.201v-29.329c0-1.214.981-2.201 2.187-2.201h50.228c1.206 0 2.187.987 2.187 2.201v12.669c0 .473.38.855.85.855a.851.851 0 00.849-.855v-12.669c0-2.157-1.743-3.911-3.886-3.911zm-33.954 49.989a.212.212 0 01-.211.212h-13.862a.212.212 0 01-.21-.212v-3.892c0-1.747 1.413-3.169 3.15-3.169h7.983c1.737 0 3.15 1.422 3.15 3.169v3.892zm-10.862-12.515c0-2.055 1.659-3.743 3.72-3.743 2.055 0 3.72 1.682 3.72 3.743 0 2.065-1.668 3.744-3.72 3.744-2.051 0-3.72-1.679-3.72-3.744zm11.711 5.868a4.838 4.838 0 00-3.999-2.124h-.056a5.447 5.447 0 001.473-4.067h5.164a5.447 5.447 0 001.474 4.067h-.057a4.84 4.84 0 00-3.999 2.124zm-4.05-9.611h8.101a5.446 5.446 0 00-1.089 1.71h-5.923a5.43 5.43 0 00-1.089-1.71zm19.182 16.258a.211.211 0 01-.21.212h-13.862a.211.211 0 01-.21-.212v-3.892c0-1.747 1.413-3.169 3.149-3.169h7.984c1.737 0 3.149 1.422 3.149 3.169v3.892zm-10.861-12.515c0-2.068 1.673-3.743 3.72-3.743 2.048 0 3.72 1.675 3.72 3.743 0 2.065-1.669 3.744-3.72 3.744s-3.72-1.679-3.72-3.744zm11.711 5.868a4.84 4.84 0 00-3.999-2.124h-.057a5.448 5.448 0 001.474-4.067h5.164a5.446 5.446 0 001.473 4.067h-.056a4.84 4.84 0 00-3.999 2.124zm-4.05-9.611h8.1a5.49 5.49 0 00-1.089 1.71h-5.923a5.428 5.428 0 00-1.088-1.71zm16.033 9.197c1.736 0 3.149 1.422 3.149 3.169v3.892a.211.211 0 01-.21.212h-13.862a.211.211 0 01-.21-.212v-3.892c0-1.747 1.412-3.169 3.149-3.169h7.984zm-7.712-5.454c0-2.063 1.667-3.743 3.72-3.743 2.051 0 3.72 1.679 3.72 3.743 0 2.065-1.669 3.744-3.72 3.744-2.052 0-3.72-1.679-3.72-3.744zm-36.164-5.453v-26.891h47.804v26.891h-47.804z" fill="#3E6680"/><path d="M81.18 245h2.52v-12.564h-2.52v5.166h-5.382v-5.166h-2.52V245h2.52v-5.346h5.382V245zm9.248-3.006l-2.573-6.966h-2.827l3.996 9.72-2.16 4.968h2.682l6.174-14.688h-2.68l-2.61 6.966zm9.17-5.508v-4.806h-2.52V245h2.52v-1.422c.613.864 1.729 1.584 3.295 1.584 2.556 0 4.554-2.07 4.554-5.184 0-3.114-1.998-5.112-4.554-5.112-1.512 0-2.682.702-3.294 1.62zm5.275 3.492c0 1.89-1.278 2.97-2.646 2.97-1.35 0-2.628-1.044-2.628-2.934 0-1.89 1.278-2.934 2.628-2.934 1.368 0 2.646 1.008 2.646 2.898zm6.925.054c0-1.926.9-2.502 2.394-2.502h.666v-2.646c-1.386 0-2.43.666-3.06 1.692v-1.548h-2.52V245h2.52v-4.968zm4.757 4.968h2.52v-9.972h-2.52V245zm1.278-11.16c.882 0 1.548-.648 1.548-1.476s-.666-1.476-1.548-1.476c-.9 0-1.548.648-1.548 1.476s.648 1.476 1.548 1.476zm3.084 6.138c0 3.114 2.016 5.184 4.554 5.184 1.566 0 2.682-.72 3.276-1.638V245h2.556v-13.32h-2.556v4.734c-.684-.936-1.944-1.548-3.258-1.548-2.556 0-4.572 1.998-4.572 5.112zm7.848.036c0 1.89-1.26 2.934-2.646 2.934-1.35 0-2.628-1.08-2.628-2.97 0-1.89 1.278-2.898 2.628-2.898 1.386 0 2.646 1.044 2.646 2.934zm16.579-7.596h-7.29V245h7.29v-2.052h-4.77v-3.33h4.23v-1.998h-4.23v-3.15h4.77v-2.052zm1.228 2.61l3.672 9.972h3.06l3.69-9.972h-2.682l-2.52 7.65-2.52-7.65h-2.7zm16.121 1.908c1.296 0 2.34.828 2.376 2.142h-4.734c.198-1.368 1.152-2.142 2.358-2.142zm4.734 4.932h-2.718c-.324.666-.918 1.206-1.998 1.206-1.26 0-2.268-.828-2.394-2.304h7.29a5.89 5.89 0 00.072-.972c0-2.97-2.034-4.932-4.914-4.932-2.952 0-5.004 1.998-5.004 5.148 0 3.132 2.106 5.148 5.004 5.148 2.466 0 4.122-1.458 4.662-3.294zm9.075 3.132h2.52v-5.85c0-2.754-1.656-4.266-3.978-4.266-1.278 0-2.358.54-3.006 1.386v-1.242h-2.52V245h2.52v-5.508c0-1.602.882-2.466 2.25-2.466 1.332 0 2.214.864 2.214 2.466V245zm5.313-3.096c0 2.286 1.278 3.096 3.186 3.096h1.584v-2.124h-1.17c-.792 0-1.062-.288-1.062-.954v-4.824h2.232v-2.07h-2.232v-2.466h-2.538v2.466h-1.188v2.07h1.188v4.806zm14.322.252c-.072-3.654-5.598-2.52-5.598-4.338 0-.576.486-.954 1.422-.954.99 0 1.602.522 1.674 1.296h2.412c-.144-1.98-1.602-3.294-4.014-3.294-2.466 0-3.942 1.332-3.942 2.988 0 3.654 5.634 2.52 5.634 4.302 0 .576-.54 1.026-1.53 1.026-1.008 0-1.71-.576-1.8-1.332h-2.538c.108 1.854 1.854 3.312 4.356 3.312 2.43 0 3.924-1.296 3.924-3.006z" fill="#F76F8E"/><g filter="url(#filter1_d)"><circle cx="362.5" cy="134.5" r="104.5" fill="#fff"/></g><path d="M410.5 122.619c0 20.434-30.065 32.5-50.5 32.5s-45-16-45-54.5c0-31 39.065-27.5 59.5-27.5 20.435 0 36 29.065 36 49.5z" fill="url(#paint1_linear)" fill-opacity=".24"/><path d="M386.325 145.333c-2.099 0-3.8 1.712-3.8 3.824s1.701 3.824 3.8 3.824c2.099 0 3.8-1.712 3.8-3.824s-1.701-3.824-3.8-3.824zm0 5.736c-1.05 0-1.9-.856-1.9-1.912s.85-1.912 1.9-1.912c1.049 0 1.9.856 1.9 1.912a1.906 1.906 0 01-1.9 1.912zm.95 2.869h-1.9c-2.622.003-4.747 2.141-4.75 4.78v5.736c0 .528.425.956.95.956h9.5c.525 0 .95-.428.95-.956v-5.736c-.003-2.639-2.128-4.777-4.75-4.78zm2.85 9.56h-7.6v-4.78a2.859 2.859 0 012.85-2.868h1.9a2.859 2.859 0 012.85 2.868v4.78zm-17.1-18.165c-2.099 0-3.8 1.712-3.8 3.824s1.701 3.824 3.8 3.824c2.099 0 3.8-1.712 3.8-3.824s-1.701-3.824-3.8-3.824zm0 5.736c-1.049 0-1.9-.856-1.9-1.912s.851-1.912 1.9-1.912 1.9.856 1.9 1.912a1.906 1.906 0 01-1.9 1.912zm.95 2.869h-1.9c-2.622.003-4.747 2.141-4.75 4.78v5.736c0 .528.425.956.95.956h9.5c.525 0 .95-.428.95-.956v-5.736c-.003-2.639-2.128-4.777-4.75-4.78zm2.85 9.56h-7.6v-4.78a2.859 2.859 0 012.85-2.868h1.9a2.859 2.859 0 012.85 2.868v4.78zm-17.1-18.165c-2.099 0-3.8 1.712-3.8 3.824s1.701 3.824 3.8 3.824c2.099 0 3.8-1.712 3.8-3.824s-1.701-3.824-3.8-3.824zm0 5.736c-1.049 0-1.9-.856-1.9-1.912s.851-1.912 1.9-1.912 1.9.856 1.9 1.912a1.906 1.906 0 01-1.9 1.912zm.95 2.869h-1.9c-2.622.003-4.747 2.141-4.75 4.78v5.736c0 .528.425.956.95.956h9.5c.525 0 .95-.428.95-.956v-5.736c-.003-2.639-2.128-4.777-4.75-4.78zm2.85 9.56h-7.6v-4.78a2.859 2.859 0 012.85-2.868h1.9a2.859 2.859 0 012.85 2.868v4.78zm9.5-40.154h-20.9c-2.622.004-4.747 2.142-4.75 4.781v13.384c0 .528.425.956.95.956h13.3c.525 0 .95-.428.95-.956v-12.428h10.45c.525 0 .95-.428.95-.956v-3.824a.954.954 0 00-.95-.957zm-.95 3.825h-10.45a.953.953 0 00-.95.956v12.428h-11.4v-12.428a2.859 2.859 0 012.85-2.868h19.95v1.912z" fill="#3E6680"/><path d="M398.675 108.048h-32.3a.953.953 0 00-.95.956v12.429h1.9V109.96h30.4v24.857h-30.4v-3.824h-1.9v4.78c0 .528.425.956.95.956h32.3c.525 0 .95-.428.95-.956v-26.769a.953.953 0 00-.95-.956z" fill="#3E6680"/><path d="M373.025 113.784h-1.9v1.912h1.9v-1.912zm20.9 0h-19v1.912h19v-1.912zm0 3.824h-22.8v1.912h22.8v-1.912zm0 3.824h-18.05v1.912h18.05v-1.912zm0 3.825h-18.05v1.912h18.05v-1.912zm0 3.824h-18.05v1.911h18.05v-1.911zm-38.95-16.253c-2.099 0-3.8 1.712-3.8 3.824v1.912c0 2.112 1.701 3.824 3.8 3.824 2.099 0 3.8-1.712 3.8-3.824v-1.912c0-2.112-1.701-3.824-3.8-3.824zm1.9 5.736a1.906 1.906 0 01-1.9 1.912c-1.049 0-1.9-.856-1.9-1.912v-1.912c0-1.056.851-1.912 1.9-1.912s1.9.856 1.9 1.912v1.912z" fill="#3E6680"/><path d="M308.134 189h2.52v-8.172l3.384 8.172h1.908l3.366-8.172V189h2.52v-12.564h-2.844l-3.996 9.342-3.996-9.342h-2.862V189zm15.541-5.022c0 3.114 2.016 5.184 4.536 5.184 1.584 0 2.718-.756 3.312-1.62V189h2.538v-9.972h-2.538v1.422c-.594-.828-1.692-1.584-3.294-1.584-2.538 0-4.554 1.998-4.554 5.112zm7.848.036c0 1.89-1.26 2.934-2.646 2.934-1.35 0-2.628-1.08-2.628-2.97 0-1.89 1.278-2.898 2.628-2.898 1.386 0 2.646 1.044 2.646 2.934zm12.739 2.142c-.072-3.654-5.598-2.52-5.598-4.338 0-.576.486-.954 1.422-.954.99 0 1.602.522 1.674 1.296h2.412c-.144-1.98-1.602-3.294-4.014-3.294-2.466 0-3.942 1.332-3.942 2.988 0 3.654 5.634 2.52 5.634 4.302 0 .576-.54 1.026-1.53 1.026-1.008 0-1.71-.576-1.8-1.332h-2.538c.108 1.854 1.854 3.312 4.356 3.312 2.43 0 3.924-1.296 3.924-3.006zm2.465-.252c0 2.286 1.278 3.096 3.186 3.096h1.584v-2.124h-1.17c-.792 0-1.062-.288-1.062-.954v-4.824h2.232v-2.07h-2.232v-2.466h-2.538v2.466h-1.188v2.07h1.188v4.806zm10.866-4.968c1.296 0 2.34.828 2.376 2.142h-4.734c.198-1.368 1.152-2.142 2.358-2.142zm4.734 4.932h-2.718c-.324.666-.918 1.206-1.998 1.206-1.26 0-2.268-.828-2.394-2.304h7.29a5.89 5.89 0 00.072-.972c0-2.97-2.034-4.932-4.914-4.932-2.952 0-5.004 1.998-5.004 5.148 0 3.132 2.106 5.148 5.004 5.148 2.466 0 4.122-1.458 4.662-3.294zm4.612-1.836c0-1.926.9-2.502 2.394-2.502h.666v-2.646c-1.386 0-2.43.666-3.06 1.692v-1.548h-2.52V189h2.52v-4.968zm4.109-.018c0 3.132 2.052 5.148 4.932 5.148 2.484 0 4.158-1.404 4.698-3.528h-2.718c-.306.9-.954 1.368-1.998 1.368-1.404 0-2.34-1.044-2.34-2.988s.936-3.006 2.34-3.006c1.044 0 1.71.54 1.998 1.386h2.718c-.54-2.232-2.214-3.528-4.698-3.528-2.88 0-4.932 2.016-4.932 5.148zM382.524 189h2.52v-13.32h-2.52V189zm4.362-5.022c0 3.114 2.016 5.184 4.536 5.184 1.584 0 2.718-.756 3.312-1.62V189h2.538v-9.972h-2.538v1.422c-.594-.828-1.692-1.584-3.294-1.584-2.538 0-4.554 1.998-4.554 5.112zm7.848.036c0 1.89-1.26 2.934-2.646 2.934-1.35 0-2.628-1.08-2.628-2.97 0-1.89 1.278-2.898 2.628-2.898 1.386 0 2.646 1.044 2.646 2.934zm12.739 2.142c-.072-3.654-5.598-2.52-5.598-4.338 0-.576.486-.954 1.422-.954.99 0 1.602.522 1.674 1.296h2.412c-.144-1.98-1.602-3.294-4.014-3.294-2.466 0-3.942 1.332-3.942 2.988 0 3.654 5.634 2.52 5.634 4.302 0 .576-.54 1.026-1.53 1.026-1.008 0-1.71-.576-1.8-1.332h-2.538c.108 1.854 1.854 3.312 4.356 3.312 2.43 0 3.924-1.296 3.924-3.006zm9.809 0c-.072-3.654-5.598-2.52-5.598-4.338 0-.576.486-.954 1.422-.954.99 0 1.602.522 1.674 1.296h2.412c-.144-1.98-1.602-3.294-4.014-3.294-2.466 0-3.942 1.332-3.942 2.988 0 3.654 5.634 2.52 5.634 4.302 0 .576-.54 1.026-1.53 1.026-1.008 0-1.71-.576-1.8-1.332h-2.538c.108 1.854 1.854 3.312 4.356 3.312 2.43 0 3.924-1.296 3.924-3.006z" fill="#F76F8E"/><g filter="url(#filter2_d)"><circle cx="590.5" cy="190.5" r="104.5" fill="#fff"/></g><path d="M638.5 172.619c0 20.434-30.065 32.5-50.5 32.5s-45-16-45-54.5c0-31 39.065-27.5 59.5-27.5 20.435 0 36 29.065 36 49.5z" fill="url(#paint2_linear)" fill-opacity=".24"/><path d="M628.242 161.399h-2.643c-.259-1.12-.7-2.19-1.305-3.167l1.87-1.882a.916.916 0 00.269-.652.921.921 0 00-.269-.652l-2.015-2.025a.905.905 0 00-.648-.271.897.897 0 00-.35.071.899.899 0 00-.298.2l-1.869 1.881a10.38 10.38 0 00-3.148-1.314v-2.661a.925.925 0 00-.268-.652.914.914 0 00-.648-.27h-2.85a.914.914 0 00-.648.27.93.93 0 00-.268.652v2.66a10.362 10.362 0 00-3.147 1.313l-1.87-1.879a.905.905 0 00-.648-.271.897.897 0 00-.35.071.899.899 0 00-.298.2l-2.015 2.028a.916.916 0 00-.269.651.926.926 0 00.269.652l1.869 1.882a10.517 10.517 0 00-1.305 3.167h-2.642a.914.914 0 00-.648.27.93.93 0 00-.268.652v.158h-29.074a.917.917 0 00-.916.917v34.661a.921.921 0 00.916.921h51.738a.921.921 0 00.916-.921V173.22l.753-.757a.913.913 0 00.268-.652.921.921 0 00-.268-.651l-1.87-1.882a10.506 10.506 0 001.305-3.167h2.642a.918.918 0 00.916-.922v-2.868a.925.925 0 00-.268-.652.914.914 0 00-.648-.27zm-54.568 35.74v-32.817h28.158v.867a.918.918 0 00.916.922h2.643c.259 1.12.7 2.191 1.305 3.167l-1.87 1.882a.932.932 0 00-.268.651.925.925 0 00.268.652l2.016 2.029a.905.905 0 00.648.27.915.915 0 00.647-.27l1.87-1.882c.97.609 2.034 1.053 3.148 1.313v2.66c0 .245.096.479.268.652.172.173.405.27.648.27h2.849a.914.914 0 00.648-.27.923.923 0 00.268-.652v-2.66a10.337 10.337 0 003.147-1.313l1.87 1.882a.904.904 0 00.727.263v22.385l-49.906-.001zm53.652-32.87h-2.483a.911.911 0 00-.597.223.927.927 0 00-.309.561 8.602 8.602 0 01-1.563 3.793.926.926 0 00.09 1.198l1.758 1.768-.367.369-.008.008-.343.346-1.758-1.768a.907.907 0 00-1.19-.091 8.513 8.513 0 01-3.769 1.573.916.916 0 00-.779.911v2.499h-1.022v-2.497a.916.916 0 00-.779-.911 8.493 8.493 0 01-3.768-1.573.916.916 0 00-1.191.091l-1.757 1.768-.721-.725 1.757-1.768a.923.923 0 00.09-1.198 8.626 8.626 0 01-1.563-3.793.92.92 0 00-.905-.784h-2.485v-1.026h2.483a.914.914 0 00.906-.784 8.614 8.614 0 011.563-3.793.921.921 0 00.175-.616.922.922 0 00-.265-.582l-1.757-1.768.72-.725 1.757 1.768a.91.91 0 001.191.091 8.492 8.492 0 013.769-1.573.913.913 0 00.557-.311.929.929 0 00.222-.6v-2.501h1.019v2.499a.924.924 0 00.779.911c1.364.21 2.657.75 3.769 1.573a.917.917 0 001.191-.09l1.757-1.768.72.724-1.757 1.768a.928.928 0 00-.09 1.199 8.622 8.622 0 011.563 3.792.926.926 0 00.308.561.911.911 0 00.597.223h2.484l.001 1.028z" fill="#3E6680"/><path d="M615.495 158.192a5.501 5.501 0 00-3.072.938 5.56 5.56 0 00-2.036 2.496 5.596 5.596 0 001.199 6.064 5.511 5.511 0 006.025 1.206 5.547 5.547 0 002.481-2.05 5.588 5.588 0 00-.69-7.023 5.516 5.516 0 00-3.907-1.631zm0 9.283a3.687 3.687 0 01-3.415-2.296 3.729 3.729 0 01.801-4.054 3.696 3.696 0 011.893-1.018 3.693 3.693 0 013.794 1.582 3.73 3.73 0 01-.461 4.696 3.688 3.688 0 01-2.612 1.09zm-10.082 12.475l-12.597-7.96a.913.913 0 00-1.403.78v15.919a.919.919 0 001.403.783l12.596-7.959a.926.926 0 000-1.562l.001-.001zm-12.168 7.072v-12.584l9.958 6.29-9.958 6.294zm31.251 15.093h-38.133a2.803 2.803 0 00-1-1.452 2.769 2.769 0 00-1.664-.563h-5.268c-.601.002-1.184.2-1.664.563-.48.363-.831.872-1 1.452h-3.009a.914.914 0 00-.648.27.923.923 0 00.648 1.574h3.009c.169.579.52 1.089 1 1.452s1.063.56 1.664.562h5.267a2.774 2.774 0 001.664-.562c.48-.363.831-.873 1-1.452h38.133a.918.918 0 00.916-.922.923.923 0 00-.268-.652.914.914 0 00-.648-.27h.001zm-39.837 1.049a.974.974 0 01-.282.683.96.96 0 01-.678.283h-5.268a.96.96 0 01-.678-.283.974.974 0 01-.282-.683v-.255a.972.972 0 01.282-.682.955.955 0 01.678-.283h5.267a.967.967 0 01.959.965l.002.255z" fill="#3E6680"/><path d="M530.414 228.47h3.348V239h2.52v-10.53h3.348v-2.034h-9.216v2.034zm20.469.558h-2.538v5.49c0 1.602-.864 2.466-2.232 2.466-1.332 0-2.214-.864-2.214-2.466v-5.49h-2.52v5.85c0 2.736 1.674 4.248 3.996 4.248 1.242 0 2.34-.54 2.97-1.386V239h2.538v-9.972zm2.882 6.876c0 2.286 1.278 3.096 3.186 3.096h1.584v-2.124h-1.17c-.792 0-1.062-.288-1.062-.954v-4.824h2.232v-2.07h-2.232v-2.466h-2.538v2.466h-1.188v2.07h1.188v4.806zm16.212-1.89c0-3.15-2.25-5.148-5.13-5.148s-5.13 1.998-5.13 5.148c0 3.132 2.178 5.148 5.058 5.148 2.898 0 5.202-2.016 5.202-5.148zm-7.704 0c0-1.998 1.206-2.952 2.538-2.952 1.332 0 2.574.954 2.574 2.952 0 1.98-1.278 2.952-2.61 2.952-1.35 0-2.502-.972-2.502-2.952zm12.073.018c0-1.926.9-2.502 2.394-2.502h.666v-2.646c-1.386 0-2.43.666-3.06 1.692v-1.548h-2.52V239h2.52v-4.968zm4.757 4.968h2.52v-9.972h-2.52V239zm1.278-11.16c.882 0 1.548-.648 1.548-1.476s-.666-1.476-1.548-1.476c-.9 0-1.548.648-1.548 1.476s.648 1.476 1.548 1.476zm3.084 6.138c0 3.114 2.016 5.184 4.536 5.184 1.584 0 2.718-.756 3.312-1.62V239h2.538v-9.972h-2.538v1.422c-.594-.828-1.692-1.584-3.294-1.584-2.538 0-4.554 1.998-4.554 5.112zm7.848.036c0 1.89-1.26 2.934-2.646 2.934-1.35 0-2.628-1.08-2.628-2.97 0-1.89 1.278-2.898 2.628-2.898 1.386 0 2.646 1.044 2.646 2.934zm4.999 4.986h2.52v-13.32h-2.52V239zm12.75-2.844c-.072-3.654-5.598-2.52-5.598-4.338 0-.576.486-.954 1.422-.954.99 0 1.602.522 1.674 1.296h2.412c-.144-1.98-1.602-3.294-4.014-3.294-2.466 0-3.942 1.332-3.942 2.988 0 3.654 5.634 2.52 5.634 4.302 0 .576-.54 1.026-1.53 1.026-1.008 0-1.71-.576-1.8-1.332h-2.538c.108 1.854 1.854 3.312 4.356 3.312 2.43 0 3.924-1.296 3.924-3.006zm14.89 2.844h2.664l-4.518-12.582h-2.934L614.646 239h2.646l.828-2.394h5.004l.828 2.394zm-1.512-4.41h-3.636l1.818-5.256 1.818 5.256zm12.849 4.41h2.52v-5.85c0-2.754-1.657-4.266-3.978-4.266-1.278 0-2.358.54-3.006 1.386v-1.242h-2.52V239h2.52v-5.508c0-1.602.882-2.466 2.25-2.466 1.332 0 2.214.864 2.214 2.466V239zm4.268-5.022c0 3.114 2.016 5.184 4.554 5.184 1.566 0 2.682-.72 3.276-1.638V239h2.556v-13.32h-2.556v4.734c-.684-.936-1.944-1.548-3.258-1.548-2.556 0-4.572 1.998-4.572 5.112zm7.848.036c0 1.89-1.26 2.934-2.646 2.934-1.35 0-2.628-1.08-2.628-2.97 0-1.89 1.278-2.898 2.628-2.898 1.386 0 2.646 1.044 2.646 2.934zm-104.576 32.004l2.952-.018 2.466-8.946 2.358 8.946h2.97l3.51-12.564h-2.718l-2.232 9.702-2.412-9.702h-2.808l-2.556 9.756-2.214-9.756h-2.7l3.384 12.582zm25.531-5.004c0-3.15-2.25-5.148-5.13-5.148s-5.13 1.998-5.13 5.148c0 3.132 2.178 5.148 5.058 5.148 2.898 0 5.202-2.016 5.202-5.148zm-7.704 0c0-1.998 1.206-2.952 2.538-2.952 1.332 0 2.574.954 2.574 2.952 0 1.98-1.278 2.952-2.61 2.952-1.35 0-2.502-.972-2.502-2.952zm12.073.018c0-1.926.9-2.502 2.394-2.502h.666v-2.646c-1.386 0-2.43.666-3.06 1.692v-1.548h-2.52V266h2.52v-4.968zm4.757 4.968h2.52v-4.248L583.39 266h3.276l-4.428-4.968 4.392-5.004h-3.276l-3.348 4.23v-7.578h-2.52V266zm18.252-2.844c-.072-3.654-5.598-2.52-5.598-4.338 0-.576.486-.954 1.422-.954.99 0 1.602.522 1.674 1.296h2.412c-.144-1.98-1.602-3.294-4.014-3.294-2.466 0-3.942 1.332-3.942 2.988 0 3.654 5.634 2.52 5.634 4.302 0 .576-.54 1.026-1.53 1.026-1.008 0-1.71-.576-1.8-1.332h-2.538c.108 1.854 1.854 3.312 4.356 3.312 2.43 0 3.924-1.296 3.924-3.006zm2.068 2.844h2.52v-5.508c0-1.602.882-2.466 2.25-2.466 1.332 0 2.214.864 2.214 2.466V266h2.52v-5.85c0-2.754-1.638-4.266-3.888-4.266-1.332 0-2.448.54-3.096 1.386v-4.59h-2.52V266zm21.531-4.986c0-3.15-2.25-5.148-5.13-5.148s-5.13 1.998-5.13 5.148c0 3.132 2.178 5.148 5.058 5.148 2.898 0 5.202-2.016 5.202-5.148zm-7.704 0c0-1.998 1.206-2.952 2.538-2.952 1.332 0 2.574.954 2.574 2.952 0 1.98-1.278 2.952-2.61 2.952-1.35 0-2.502-.972-2.502-2.952zm12.072-3.546v-1.44h-2.52v14.724h2.52v-6.174c.612.81 1.728 1.584 3.294 1.584 2.556 0 4.554-2.07 4.554-5.184 0-3.114-1.998-5.112-4.554-5.112-1.548 0-2.7.756-3.294 1.602zm5.274 3.51c0 1.89-1.278 2.97-2.646 2.97-1.35 0-2.628-1.044-2.628-2.934 0-1.89 1.278-2.934 2.628-2.934 1.368 0 2.646 1.008 2.646 2.898zm12.146 2.178c-.072-3.654-5.598-2.52-5.598-4.338 0-.576.486-.954 1.422-.954.99 0 1.602.522 1.674 1.296h2.412c-.144-1.98-1.602-3.294-4.014-3.294-2.466 0-3.942 1.332-3.942 2.988 0 3.654 5.634 2.52 5.634 4.302 0 .576-.54 1.026-1.53 1.026-1.008 0-1.71-.576-1.8-1.332h-2.538c.108 1.854 1.854 3.312 4.356 3.312 2.43 0 3.924-1.296 3.924-3.006z" fill="#F76F8E"/><g filter="url(#filter3_d)"><circle cx="134.5" cy="422.5" r="104.5" fill="#fff"/></g><path d="M182.5 401.619c0 20.434-30.065 32.5-50.5 32.5s-45-16-45-54.5c0-31 39.065-27.5 59.5-27.5 20.435 0 36 29.065 36 49.5z" fill="url(#paint3_linear)" fill-opacity=".24"/><path d="M144.469 398.851h1.812v1.824h-1.812v-1.824zm3.625 0h1.812v1.824h-1.812v-1.824zm3.625 0h1.812v1.824h-1.812v-1.824zm-7.25 36.48h1.812v1.824h-1.812v-1.824zm3.625 0h1.812v1.824h-1.812v-1.824zm3.625 0h1.812v1.824h-1.812v-1.824zm-21.75-21.888h1.812v1.824h-1.812v-1.824zm0 3.648h1.812v1.824h-1.812v-1.824zm0 3.648h1.812v1.824h-1.812v-1.824zm36.25-7.296h1.812v1.824h-1.812v-1.824zm0 3.648h1.812v1.824h-1.812v-1.824zm0 3.648h1.812v1.824h-1.812v-1.824zm-34.438-30.096a9.919 9.919 0 00-5.538 1.691 10.023 10.023 0 00-3.672 4.502 10.092 10.092 0 00-.567 5.796 10.057 10.057 0 002.728 5.137 9.959 9.959 0 005.104 2.746 9.914 9.914 0 005.76-.571 9.988 9.988 0 004.474-3.695 10.07 10.07 0 00-1.242-12.666 9.943 9.943 0 00-7.047-2.94zm4.532 16.854a8.105 8.105 0 01-9.063 0v-1.35a2.75 2.75 0 01.799-1.932 2.714 2.714 0 011.92-.804h3.625c.72.002 1.41.291 1.92.804.509.513.796 1.207.799 1.932v1.35zm-6.344-7.734v-1.824c0-.484.191-.948.531-1.29a1.807 1.807 0 012.563 0c.34.342.531.806.531 1.29v1.824c0 .484-.191.948-.531 1.29a1.807 1.807 0 01-2.563 0 1.83 1.83 0 01-.531-1.29zm8.129 6.102a4.574 4.574 0 00-1.002-2.576 4.519 4.519 0 00-2.297-1.519 3.633 3.633 0 00.607-2.007v-1.824c0-.967-.382-1.895-1.061-2.579a3.611 3.611 0 00-5.127 0 3.659 3.659 0 00-1.062 2.579v1.824c.001.715.213 1.413.607 2.007a4.516 4.516 0 00-2.296 1.519 4.574 4.574 0 00-1.002 2.576 8.253 8.253 0 01-1.053-8.711 8.192 8.192 0 013.01-3.419 8.11 8.11 0 018.719 0 8.19 8.19 0 013.009 3.419 8.253 8.253 0 01-1.052 8.711zm28.121-15.222a9.922 9.922 0 00-5.539 1.691 10.015 10.015 0 00-3.671 4.502 10.083 10.083 0 002.161 10.933 9.915 9.915 0 0010.864 2.175 9.991 9.991 0 004.473-3.695 10.076 10.076 0 00-1.241-12.666 9.945 9.945 0 00-7.047-2.94zm4.531 16.854a8.104 8.104 0 01-9.062 0v-1.35a2.753 2.753 0 01.798-1.932c.51-.513 1.2-.802 1.92-.804h3.625a2.714 2.714 0 011.92.804 2.75 2.75 0 01.799 1.932v1.35zm-6.344-7.734v-1.824c0-.484.191-.948.531-1.29a1.807 1.807 0 012.563 0c.34.342.531.806.531 1.29v1.824c0 .484-.191.948-.531 1.29a1.807 1.807 0 01-2.563 0 1.83 1.83 0 01-.531-1.29zm8.129 6.102a4.574 4.574 0 00-1.002-2.576 4.516 4.516 0 00-2.296-1.519 3.641 3.641 0 00.607-2.007v-1.824c0-.967-.382-1.895-1.062-2.579a3.61 3.61 0 00-5.127 0 3.662 3.662 0 00-1.061 2.579v1.824c.001.715.212 1.413.607 2.007a4.519 4.519 0 00-2.297 1.519 4.574 4.574 0 00-1.002 2.576 8.253 8.253 0 01-1.052-8.711 8.19 8.19 0 013.009-3.419 8.113 8.113 0 018.719 0 8.192 8.192 0 013.01 3.419 8.253 8.253 0 01-1.053 8.711zm-40.754 19.434a9.927 9.927 0 00-5.538 1.691 10.023 10.023 0 00-3.672 4.502 10.092 10.092 0 00-.567 5.796 10.057 10.057 0 002.728 5.137 9.959 9.959 0 005.104 2.746 9.914 9.914 0 005.76-.571 9.982 9.982 0 004.474-3.695 10.07 10.07 0 00-1.242-12.666 9.943 9.943 0 00-7.047-2.94zm4.532 16.854a8.105 8.105 0 01-9.063 0v-1.35a2.75 2.75 0 01.799-1.932 2.714 2.714 0 011.92-.804h3.625c.72.002 1.41.291 1.92.804.509.513.796 1.207.799 1.932v1.35zm-6.344-7.734v-1.824c0-.483.191-.947.531-1.289a1.804 1.804 0 012.563 0c.34.342.531.806.531 1.289v1.824c0 .484-.191.948-.531 1.29a1.807 1.807 0 01-2.563 0 1.83 1.83 0 01-.531-1.29zm8.129 6.102a4.574 4.574 0 00-1.002-2.576 4.525 4.525 0 00-2.297-1.519 3.633 3.633 0 00.607-2.007v-1.824c0-.967-.382-1.895-1.061-2.579a3.616 3.616 0 00-2.564-1.069c-.961 0-1.883.385-2.563 1.069a3.659 3.659 0 00-1.062 2.579v1.824c.001.715.213 1.413.607 2.007a4.522 4.522 0 00-2.296 1.519 4.574 4.574 0 00-1.002 2.576 8.253 8.253 0 01-1.053-8.711 8.192 8.192 0 013.01-3.419 8.118 8.118 0 018.719 0 8.19 8.19 0 013.009 3.419 8.253 8.253 0 01-1.052 8.711zm28.121-15.222a9.93 9.93 0 00-5.539 1.691 10.015 10.015 0 00-3.671 4.502 10.083 10.083 0 002.161 10.933 9.915 9.915 0 0010.864 2.175 9.985 9.985 0 004.473-3.695 10.076 10.076 0 00-1.241-12.666 9.945 9.945 0 00-7.047-2.94zm4.531 16.854a8.104 8.104 0 01-9.062 0v-1.35a2.753 2.753 0 01.798-1.932c.51-.513 1.2-.802 1.92-.804h3.625a2.714 2.714 0 011.92.804 2.75 2.75 0 01.799 1.932v1.35zm-6.344-7.734v-1.824c0-.483.191-.947.531-1.289a1.804 1.804 0 012.563 0c.34.342.531.806.531 1.289v1.824c0 .484-.191.948-.531 1.29a1.807 1.807 0 01-2.563 0 1.83 1.83 0 01-.531-1.29zm8.129 6.102a4.574 4.574 0 00-1.002-2.576 4.522 4.522 0 00-2.296-1.519 3.641 3.641 0 00.607-2.007v-1.824c0-.967-.382-1.895-1.062-2.579a3.615 3.615 0 00-2.563-1.069c-.962 0-1.884.385-2.564 1.069a3.662 3.662 0 00-1.061 2.579v1.824c.001.715.212 1.413.607 2.007a4.525 4.525 0 00-2.297 1.519 4.574 4.574 0 00-1.002 2.576 8.253 8.253 0 01-1.052-8.711 8.19 8.19 0 013.009-3.419 8.118 8.118 0 018.719 0 8.192 8.192 0 013.01 3.419 8.253 8.253 0 01-1.053 8.711zm-15.995-17.912l-4.821-1.614V419.8a4.565 4.565 0 001.432-1.797h1.286a2.718 2.718 0 001.921-.804 2.752 2.752 0 00.596-2.974 2.7 2.7 0 00-.586-.882 1.03 1.03 0 00-.118-.091v-1.633a7.318 7.318 0 00-2.124-5.159 7.225 7.225 0 00-5.126-2.137 7.23 7.23 0 00-5.127 2.137 7.321 7.321 0 00-2.123 5.159v1.623a.442.442 0 01-.1.083 2.717 2.717 0 00-.806 1.942c.002.725.289 1.42.798 1.932.51.513 1.2.802 1.92.804h1.287c.317.712.81 1.331 1.432 1.797v1.195l-4.821 1.614a.925.925 0 00-.616.866v4.56a.905.905 0 00.906.912h14.5a.905.905 0 00.906-.912v-4.56a.925.925 0 00-.616-.866zm-4.821-6.43c0 .726-.287 1.422-.797 1.935a2.708 2.708 0 01-3.844 0 2.745 2.745 0 01-.797-1.935v-2.025l2.719-.684 2.719.684v2.025zm-1.813 4.469v.73l-.906 1.368-.906-1.368v-.73a4.531 4.531 0 001.812 0zm-3.598-8.381a2.729 2.729 0 01.869-1.764 2.692 2.692 0 013.646 0c.498.458.808 1.087.869 1.764l-2.475-.621a.89.89 0 00-.435 0l-2.474.621zm9.036 3a.915.915 0 01-.266.645.903.903 0 01-.641.267h-.906v-1.824h.906a.87.87 0 01.352.072.87.87 0 01.292.211.854.854 0 01.263.629zm-10.875.912h-.907a.902.902 0 01-.64-.267.915.915 0 01-.194-.999.87.87 0 01.209-.293.834.834 0 01.625-.265h.907v1.824zm0-3.648h-.907v-.912c0-1.451.573-2.843 1.593-3.869a5.422 5.422 0 013.845-1.603 5.426 5.426 0 013.842 1.605 5.494 5.494 0 011.595 3.867v.912h-.906a4.573 4.573 0 00-1.327-3.224 4.514 4.514 0 00-6.408 0 4.573 4.573 0 00-1.327 3.224zm10.875 14.592h-12.688v-2.991l4.16-1.396 1.432 2.153a.891.891 0 001.18.301.891.891 0 00.324-.301l1.432-2.153 4.16 1.396v2.991z" fill="#3E6680"/><path d="M76.859 472.7c0 3.762 2.754 6.408 6.372 6.408 2.79 0 5.058-1.476 5.904-4.068h-2.898c-.594 1.224-1.674 1.818-3.024 1.818-2.197 0-3.762-1.62-3.762-4.158 0-2.556 1.566-4.158 3.762-4.158 1.35 0 2.43.594 3.024 1.8h2.898c-.847-2.574-3.115-4.068-5.904-4.068-3.618 0-6.372 2.664-6.372 6.426zm24.058 1.314c0-3.15-2.25-5.148-5.13-5.148s-5.13 1.998-5.13 5.148c0 3.132 2.178 5.148 5.058 5.148 2.898 0 5.202-2.016 5.202-5.148zm-7.704 0c0-1.998 1.206-2.952 2.538-2.952 1.332 0 2.574.954 2.574 2.952 0 1.98-1.278 2.952-2.61 2.952-1.35 0-2.502-.972-2.502-2.952zM109.749 479h2.52v-5.85c0-2.754-1.656-4.266-3.978-4.266-1.278 0-2.358.54-3.006 1.386v-1.242h-2.52V479h2.52v-5.508c0-1.602.882-2.466 2.25-2.466 1.332 0 2.214.864 2.214 2.466V479zm5.187 0h2.556v-7.902h1.746v-2.07h-1.746v-.414c0-1.116.414-1.512 1.638-1.476v-2.124c-2.808-.072-4.194 1.062-4.194 3.51v.504h-1.134v2.07h1.134V479zm10.219-8.064c1.296 0 2.34.828 2.376 2.142h-4.734c.198-1.368 1.152-2.142 2.358-2.142zm4.734 4.932h-2.718c-.324.666-.918 1.206-1.998 1.206-1.26 0-2.268-.828-2.394-2.304h7.29a5.89 5.89 0 00.072-.972c0-2.97-2.034-4.932-4.914-4.932-2.952 0-5.004 1.998-5.004 5.148 0 3.132 2.106 5.148 5.004 5.148 2.466 0 4.122-1.458 4.662-3.294zm4.611-1.836c0-1.926.9-2.502 2.394-2.502h.666v-2.646c-1.386 0-2.43.666-3.06 1.692v-1.548h-2.52V479h2.52v-4.968zm9.042-3.096c1.296 0 2.34.828 2.376 2.142h-4.734c.198-1.368 1.152-2.142 2.358-2.142zm4.734 4.932h-2.718c-.324.666-.918 1.206-1.998 1.206-1.26 0-2.268-.828-2.394-2.304h7.29a5.89 5.89 0 00.072-.972c0-2.97-2.034-4.932-4.914-4.932-2.952 0-5.004 1.998-5.004 5.148 0 3.132 2.106 5.148 5.004 5.148 2.466 0 4.122-1.458 4.662-3.294zm9.075 3.132h2.52v-5.85c0-2.754-1.656-4.266-3.978-4.266-1.278 0-2.358.54-3.006 1.386v-1.242h-2.52V479h2.52v-5.508c0-1.602.882-2.466 2.25-2.466 1.332 0 2.214.864 2.214 2.466V479zm4.268-4.986c0 3.132 2.052 5.148 4.932 5.148 2.484 0 4.158-1.404 4.698-3.528h-2.718c-.306.9-.954 1.368-1.998 1.368-1.404 0-2.34-1.044-2.34-2.988s.936-3.006 2.34-3.006c1.044 0 1.71.54 1.998 1.386h2.718c-.54-2.232-2.214-3.528-4.698-3.528-2.88 0-4.932 2.016-4.932 5.148zm15.761-3.078c1.296 0 2.34.828 2.376 2.142h-4.734c.198-1.368 1.152-2.142 2.358-2.142zm4.734 4.932h-2.718c-.324.666-.918 1.206-1.998 1.206-1.26 0-2.268-.828-2.394-2.304h7.29a5.89 5.89 0 00.072-.972c0-2.97-2.034-4.932-4.914-4.932-2.952 0-5.004 1.998-5.004 5.148 0 3.132 2.106 5.148 5.004 5.148 2.466 0 4.122-1.458 4.662-3.294zm9.831.288c-.072-3.654-5.598-2.52-5.598-4.338 0-.576.486-.954 1.422-.954.99 0 1.602.522 1.674 1.296h2.412c-.144-1.98-1.602-3.294-4.014-3.294-2.466 0-3.942 1.332-3.942 2.988 0 3.654 5.634 2.52 5.634 4.302 0 .576-.54 1.026-1.53 1.026-1.008 0-1.71-.576-1.8-1.332h-2.538c.108 1.854 1.854 3.312 4.356 3.312 2.43 0 3.924-1.296 3.924-3.006z" fill="#F76F8E"/><g filter="url(#filter4_d)"><circle cx="362.5" cy="370.5" r="104.5" fill="#fff"/></g><path d="M386.268 339.614h-4.692a.857.857 0 00-.854.859c0 .474.382.859.854.859h4.692c1.117 0 2.025.914 2.025 2.038v29.034h-2.897a.856.856 0 00-.853.859c0 .474.382.859.853.859h2.897v6.065a2.033 2.033 0 01-2.025 2.038h-50.536a2.033 2.033 0 01-2.025-2.038v-6.065h48.052a.857.857 0 00.854-.859.857.857 0 00-.854-.859h-48.052V343.37c0-1.124.908-2.038 2.025-2.038h4.806a.857.857 0 00.854-.859.857.857 0 00-.854-.859h-4.806c-2.058 0-3.732 1.685-3.732 3.756v36.817c0 2.071 1.674 3.756 3.732 3.756h50.536c2.058 0 3.732-1.685 3.732-3.756V343.37c0-2.071-1.674-3.756-3.732-3.756z" fill="#3E6680"/><path d="M370.396 356.438v-3.294a.856.856 0 00-.853-.859.857.857 0 00-.854.859v2.435h-1.706v-2.435c0-3.288-2.659-5.964-5.926-5.964-3.268 0-5.926 2.676-5.926 5.964v2.435h-1.707v-2.435a.856.856 0 00-.853-.859.856.856 0 00-.853.859v3.294c0 4.892 3.734 8.922 8.485 9.357v2.033h-3.806a.856.856 0 00-.854.858c0 .475.382.859.854.859h9.32a.856.856 0 00.853-.859.855.855 0 00-.853-.858h-3.807v-2.033c4.751-.435 8.486-4.465 8.486-9.357zm-8.486 7.631v-1.731c2.586-.377 4.636-2.44 5.01-5.042h1.72c-.394 3.551-3.202 6.376-6.73 6.773zm-.853-15.171c2.034 0 3.737 1.456 4.132 3.387h-8.265c.396-1.931 2.099-3.387 4.133-3.387zm-7.584 8.398h1.719c.068.469.191.927.368 1.37a.85.85 0 001.111.475.86.86 0 00.472-1.117 4.241 4.241 0 01-.305-1.586v-2.435h8.438v2.435c0 2.341-1.893 4.246-4.219 4.246a4.157 4.157 0 01-1.851-.43.85.85 0 00-1.141.394.861.861 0 00.391 1.149 5.846 5.846 0 001.747.541v1.731c-3.528-.397-6.335-3.222-6.73-6.773z" fill="#3E6680"/><path d="M361 357.713a.855.855 0 00.853-.858v-.418a.855.855 0 00-.853-.858.855.855 0 00-.853.858v.418c0 .474.382.858.853.858zm-12.477 17.826a1.701 1.701 0 00-1.766-.094c-.562.3-.912.885-.912 1.526v1.913a1.725 1.725 0 001.717 1.728c.337 0 .672-.099.961-.296l1.407-.957a1.73 1.73 0 00.756-1.432 1.73 1.73 0 00-.756-1.431l-1.407-.957zm.452 2.397l-1.41.96c-.004 0-.011-.004-.012-.004h-.001v-.008l-.001-1.918c.002-.003.01-.007.017-.004l1.41.959a.018.018 0 01-.003.015zm5.498-.867a.855.855 0 00-.853.858c0 .475.382.859.853.859h5.382a.856.856 0 00.854-.859.856.856 0 00-.854-.858h-5.382zm10.689 3.544a2.68 2.68 0 01-2.669-2.686 2.68 2.68 0 012.669-2.686 2.681 2.681 0 012.669 2.686 2.681 2.681 0 01-2.669 2.686zm0-3.654a.966.966 0 00-.963.968c0 .534.432.969.963.969.53 0 .962-.435.962-.969a.966.966 0 00-.962-.968zm19.794 1.827h-14.488a.856.856 0 01-.853-.859c0-.474.382-.858.853-.858h14.488c.471 0 .853.384.853.858a.856.856 0 01-.853.859zm-43.188-2.686v3.655c0 .474.382.858.854.858a.855.855 0 00.853-.858V376.1a.856.856 0 00-.853-.859.857.857 0 00-.854.859zm-3.512 0v3.655c0 .474.382.858.853.858a.856.856 0 00.854-.858V376.1a.857.857 0 00-.854-.859.856.856 0 00-.853.859zm33.437-24.666a.858.858 0 00.837-1.029c-1.102-5.463-5.927-9.427-11.473-9.427-5.546 0-10.372 3.964-11.473 9.427a.853.853 0 101.672.341c.941-4.665 5.063-8.051 9.801-8.051s8.859 3.386 9.801 8.051a.854.854 0 00.835.688z" fill="#3E6680"/><path d="M344.087 365.753a.849.849 0 001.196.163.862.862 0 00.162-1.204 19.64 19.64 0 01-4.005-11.952c0-10.885 8.8-19.741 19.617-19.741 10.816 0 19.616 8.856 19.616 19.741 0 4.359-1.384 8.492-4.004 11.952a.862.862 0 00.161 1.204.846.846 0 001.196-.163c2.849-3.761 4.354-8.254 4.354-12.993 0-11.832-9.565-21.459-21.323-21.459-11.758 0-21.323 9.627-21.323 21.459 0 4.739 1.505 9.232 4.353 12.993z" fill="#3E6680"/><path d="M372.614 363.768a.849.849 0 001.203-.098 16.923 16.923 0 003.984-10.91c0-3.429-1.018-6.73-2.946-9.546a.848.848 0 00-1.186-.22.86.86 0 00-.219 1.194 15.112 15.112 0 012.644 8.572c0 3.588-1.27 7.067-3.577 9.797a.862.862 0 00.097 1.211zm-11.557-26.141a14.95 14.95 0 0110.125 3.944.849.849 0 001.205-.056.862.862 0 00-.056-1.213 16.642 16.642 0 00-11.274-4.393c-9.233 0-16.744 7.559-16.744 16.851 0 3.928 1.372 7.751 3.864 10.767a.851.851 0 001.202.111.863.863 0 00.111-1.209 15.208 15.208 0 01-3.47-9.669c-.001-8.344 6.745-15.133 15.037-15.133z" fill="#3E6680"/><path d="M403.5 349.619c0 20.434-30.065 32.5-50.5 32.5s-45-16-45-54.5c0-31 39.065-27.5 59.5-27.5 20.435 0 36 29.065 36 49.5z" fill="url(#paint4_linear)" fill-opacity=".24"/><path d="M312.01 416h2.52v-12.564h-2.52V416zm11.993 0h2.52v-5.85c0-2.754-1.656-4.266-3.978-4.266-1.278 0-2.358.54-3.006 1.386v-1.242h-2.52V416h2.52v-5.508c0-1.602.882-2.466 2.25-2.466 1.332 0 2.214.864 2.214 2.466V416zm5.313-3.096c0 2.286 1.278 3.096 3.186 3.096h1.584v-2.124h-1.17c-.792 0-1.062-.288-1.062-.954v-4.824h2.232v-2.07h-2.232v-2.466h-2.538v2.466h-1.188v2.07h1.188v4.806zm10.866-4.968c1.296 0 2.34.828 2.376 2.142h-4.734c.198-1.368 1.152-2.142 2.358-2.142zm4.734 4.932h-2.718c-.324.666-.918 1.206-1.998 1.206-1.26 0-2.268-.828-2.394-2.304h7.29a5.89 5.89 0 00.072-.972c0-2.97-2.034-4.932-4.914-4.932-2.952 0-5.004 1.998-5.004 5.148 0 3.132 2.106 5.148 5.004 5.148 2.466 0 4.122-1.458 4.662-3.294zm4.612-1.836c0-1.926.9-2.502 2.394-2.502h.666v-2.646c-1.386 0-2.43.666-3.06 1.692v-1.548h-2.52V416h2.52v-4.968zm4.109-.054c0 3.114 2.016 5.184 4.536 5.184 1.584 0 2.718-.756 3.312-1.62V416h2.538v-9.972h-2.538v1.422c-.594-.828-1.692-1.584-3.294-1.584-2.538 0-4.554 1.998-4.554 5.112zm7.848.036c0 1.89-1.26 2.934-2.646 2.934-1.35 0-2.628-1.08-2.628-2.97 0-1.89 1.278-2.898 2.628-2.898 1.386 0 2.646 1.044 2.646 2.934zm4.351 0c0 3.132 2.052 5.148 4.932 5.148 2.484 0 4.158-1.404 4.698-3.528h-2.718c-.306.9-.954 1.368-1.998 1.368-1.404 0-2.34-1.044-2.34-2.988s.936-3.006 2.34-3.006c1.044 0 1.71.54 1.998 1.386h2.718c-.54-2.232-2.214-3.528-4.698-3.528-2.88 0-4.932 2.016-4.932 5.148zm11.872 1.89c0 2.286 1.278 3.096 3.186 3.096h1.584v-2.124h-1.17c-.792 0-1.062-.288-1.062-.954v-4.824h2.232v-2.07h-2.232v-2.466h-2.538v2.466h-1.188v2.07h1.188v4.806zm6.583 3.096h2.52v-9.972h-2.52V416zm1.278-11.16c.882 0 1.548-.648 1.548-1.476s-.666-1.476-1.548-1.476c-.9 0-1.548.648-1.548 1.476s.648 1.476 1.548 1.476zm2.67 1.188l3.672 9.972h3.06l3.69-9.972h-2.682l-2.52 7.65-2.52-7.65h-2.7zm16.121 1.908c1.296 0 2.34.828 2.376 2.142h-4.734c.198-1.368 1.152-2.142 2.358-2.142zm4.734 4.932h-2.718c-.324.666-.918 1.206-1.998 1.206-1.26 0-2.268-.828-2.394-2.304h7.29a5.89 5.89 0 00.072-.972c0-2.97-2.034-4.932-4.914-4.932-2.952 0-5.004 1.998-5.004 5.148 0 3.132 2.106 5.148 5.004 5.148 2.466 0 4.122-1.458 4.662-3.294zm-80.054 23.274v-3.654h1.998c1.422 0 2.052.684 2.052 1.836 0 1.116-.63 1.818-2.052 1.818h-1.998zm6.642-1.818c0-2.178-1.512-3.888-4.536-3.888h-4.626V443h2.52v-4.824h2.106c3.24 0 4.536-1.944 4.536-3.852zm11.419 3.69c0-3.15-2.25-5.148-5.13-5.148s-5.13 1.998-5.13 5.148c0 3.132 2.178 5.148 5.058 5.148 2.898 0 5.202-2.016 5.202-5.148zm-7.704 0c0-1.998 1.206-2.952 2.538-2.952 1.332 0 2.574.954 2.574 2.952 0 1.98-1.278 2.952-2.61 2.952-1.35 0-2.502-.972-2.502-2.952zm8.905-.036c0 3.114 2.016 5.184 4.554 5.184 1.566 0 2.682-.72 3.276-1.638V443h2.556v-13.32h-2.556v4.734c-.684-.936-1.944-1.548-3.258-1.548-2.556 0-4.572 1.998-4.572 5.112zm7.848.036c0 1.89-1.26 2.934-2.646 2.934-1.35 0-2.628-1.08-2.628-2.97 0-1.89 1.278-2.898 2.628-2.898 1.386 0 2.646 1.044 2.646 2.934zm4.351 0c0 3.132 2.052 5.148 4.932 5.148 2.484 0 4.158-1.404 4.698-3.528h-2.718c-.306.9-.954 1.368-1.998 1.368-1.404 0-2.34-1.044-2.34-2.988s.936-3.006 2.34-3.006c1.044 0 1.71.54 1.998 1.386h2.718c-.54-2.232-2.214-3.528-4.698-3.528-2.88 0-4.932 2.016-4.932 5.148zm10.828-.036c0 3.114 2.016 5.184 4.536 5.184 1.584 0 2.718-.756 3.312-1.62V443h2.538v-9.972h-2.538v1.422c-.594-.828-1.692-1.584-3.294-1.584-2.538 0-4.554 1.998-4.554 5.112zm7.848.036c0 1.89-1.26 2.934-2.646 2.934-1.35 0-2.628-1.08-2.628-2.97 0-1.89 1.278-2.898 2.628-2.898 1.386 0 2.646 1.044 2.646 2.934zm12.74 2.142c-.072-3.654-5.598-2.52-5.598-4.338 0-.576.486-.954 1.422-.954.99 0 1.602.522 1.674 1.296h2.412c-.144-1.98-1.602-3.294-4.014-3.294-2.466 0-3.942 1.332-3.942 2.988 0 3.654 5.634 2.52 5.634 4.302 0 .576-.54 1.026-1.53 1.026-1.008 0-1.71-.576-1.8-1.332h-2.538c.108 1.854 1.854 3.312 4.356 3.312 2.43 0 3.924-1.296 3.924-3.006zm2.464-.252c0 2.286 1.278 3.096 3.186 3.096h1.584v-2.124h-1.17c-.792 0-1.062-.288-1.062-.954v-4.824h2.232v-2.07h-2.232v-2.466h-2.538v2.466h-1.188v2.07h1.188v4.806z" fill="#F76F8E"/><g filter="url(#filter5_d)"><circle cx="590.5" cy="422.5" r="104.5" fill="#fff"/></g><path d="M638.5 401.619c0 20.434-30.065 32.5-50.5 32.5s-45-16-45-54.5c0-31 39.065-27.5 59.5-27.5 20.435 0 36 29.065 36 49.5z" fill="url(#paint5_linear)" fill-opacity=".24"/><path d="M585.331 394.965h12.513a.852.852 0 00.849-.855.851.851 0 00-.849-.855h-12.513a.851.851 0 00-.849.855c0 .472.38.855.849.855zm0 4.002h12.513a.852.852 0 00.849-.855.852.852 0 00-.849-.855h-12.513a.852.852 0 00-.849.855c0 .472.38.855.849.855zm6.257 20.458h15.95c.469 0 .85-.383.85-.856a.853.853 0 00-.85-.855h-15.95c-.47 0-.85.383-.85.855 0 .473.38.856.85.856zm0 4.257h15.95c.469 0 .85-.382.85-.854a.852.852 0 00-.85-.855h-15.95c-.47 0-.85.382-.85.855 0 .472.38.854.85.854zm32.162-16.187h-10.723a1.853 1.853 0 00-1.845 1.856v12.867c0 1.024.828 1.856 1.845 1.856h10.723a1.852 1.852 0 001.845-1.856v-12.867a1.853 1.853 0 00-1.845-1.856zm-10.723 1.71h10.723c.08 0 .146.065.146.146v9.399a7.699 7.699 0 00-2.882-1.857 3.417 3.417 0 00.774-2.172c0-1.887-1.525-3.422-3.4-3.422-1.874 0-3.4 1.535-3.4 3.422 0 .824.291 1.581.775 2.172a7.699 7.699 0 00-2.882 1.857v-9.399c0-.081.066-.146.146-.146zm3.661 5.516c0-.944.763-1.711 1.7-1.711.938 0 1.701.767 1.701 1.711 0 .944-.763 1.712-1.701 1.712-.937 0-1.7-.768-1.7-1.712zm7.062 7.643h-10.723a.146.146 0 01-.146-.146v-.477a6.011 6.011 0 015.507-3.598 6.011 6.011 0 015.508 3.598v.477a.146.146 0 01-.146.146z" fill="#3E6680"/><path d="M634.743 430.754h-1.491V401.88c0-2.106-1.703-3.819-3.795-3.819h-25.431v-5.087c0-2.393-1.935-4.34-4.313-4.34h-16.251c-2.378 0-4.313 1.947-4.313 4.34v6.47a4.34 4.34 0 003.599 4.28v27.03h-1.491a2.267 2.267 0 00-2.257 2.272c0 3.471 2.807 6.296 6.256 6.296h45.488c3.449 0 6.256-2.825 6.256-6.296a2.267 2.267 0 00-2.257-2.272zm-53.895-31.31v-6.47c0-1.45 1.173-2.63 2.614-2.63h16.251a2.625 2.625 0 012.614 2.63v6.47a2.625 2.625 0 01-2.614 2.63.852.852 0 00-.849.855v7.305l-4.473-7.356a1.68 1.68 0 00-1.426-.804h-9.503a2.625 2.625 0 01-2.614-2.63zm3.599 4.34h8.503l4.727 7.774c.817 1.344 2.886.77 2.886-.818v-7.04a4.34 4.34 0 003.45-3.929h25.444c1.156 0 2.096.946 2.096 2.109v28.874h-47.106v-26.97zm15.363 28.68h16.38v.86a.858.858 0 01-.854.859h-14.672a.858.858 0 01-.854-.859v-.86zm30.934 5.148h-45.488c-2.512 0-4.557-2.057-4.557-4.586 0-.31.25-.562.558-.562h16.854v.86a2.564 2.564 0 002.553 2.569h14.672a2.564 2.564 0 002.553-2.569v-.86h16.854c.307 0 .558.252.558.562 0 2.529-2.045 4.586-4.557 4.586z" fill="#3E6680"/><path d="M629.263 426.814v-23.102c0-.903-.729-1.637-1.626-1.637h-22.278a.852.852 0 00-.85.855c0 .472.381.855.85.855h22.205v22.956h-39.128v-19.802a.853.853 0 00-.85-.855.853.853 0 00-.85.855v19.875c0 .903.73 1.637 1.627 1.637h39.273c.898 0 1.627-.734 1.627-1.637z" fill="#3E6680"/><path d="M540.031 475.364c0-4.428-6.444-3.024-6.444-5.544 0-1.026.738-1.512 1.728-1.476 1.08.018 1.746.666 1.8 1.494h2.772c-.162-2.268-1.926-3.582-4.5-3.582-2.592 0-4.428 1.368-4.428 3.636-.018 4.554 6.462 2.916 6.462 5.634 0 .9-.702 1.53-1.89 1.53-1.17 0-1.836-.666-1.908-1.674h-2.7c.036 2.376 2.052 3.744 4.662 3.744 2.862 0 4.446-1.782 4.446-3.762zm11.815-1.35c0-3.15-2.25-5.148-5.13-5.148s-5.13 1.998-5.13 5.148c0 3.132 2.178 5.148 5.058 5.148 2.898 0 5.202-2.016 5.202-5.148zm-7.704 0c0-1.998 1.206-2.952 2.538-2.952 1.332 0 2.574.954 2.574 2.952 0 1.98-1.278 2.952-2.61 2.952-1.35 0-2.502-.972-2.502-2.952zm8.904 0c0 3.132 2.052 5.148 4.932 5.148 2.484 0 4.158-1.404 4.698-3.528h-2.718c-.306.9-.954 1.368-1.998 1.368-1.404 0-2.34-1.044-2.34-2.988s.936-3.006 2.34-3.006c1.044 0 1.71.54 1.998 1.386h2.718c-.54-2.232-2.214-3.528-4.698-3.528-2.88 0-4.932 2.016-4.932 5.148zM564.522 479h2.52v-9.972h-2.52V479zm1.278-11.16c.882 0 1.548-.648 1.548-1.476s-.666-1.476-1.548-1.476c-.9 0-1.548.648-1.548 1.476s.648 1.476 1.548 1.476zm3.084 6.138c0 3.114 2.016 5.184 4.536 5.184 1.584 0 2.718-.756 3.312-1.62V479h2.538v-9.972h-2.538v1.422c-.594-.828-1.692-1.584-3.294-1.584-2.538 0-4.554 1.998-4.554 5.112zm7.848.036c0 1.89-1.26 2.934-2.646 2.934-1.35 0-2.628-1.08-2.628-2.97 0-1.89 1.278-2.898 2.628-2.898 1.386 0 2.646 1.044 2.646 2.934zm4.999 4.986h2.52v-13.32h-2.52V479zm18.083-3.636c0-4.428-6.444-3.024-6.444-5.544 0-1.026.738-1.512 1.728-1.476 1.08.018 1.746.666 1.8 1.494h2.772c-.162-2.268-1.926-3.582-4.5-3.582-2.592 0-4.428 1.368-4.428 3.636-.018 4.554 6.462 2.916 6.462 5.634 0 .9-.702 1.53-1.89 1.53-1.17 0-1.836-.666-1.908-1.674h-2.7c.036 2.376 2.052 3.744 4.662 3.744 2.862 0 4.446-1.782 4.446-3.762zm6.469-4.428c1.296 0 2.34.828 2.376 2.142h-4.734c.198-1.368 1.152-2.142 2.358-2.142zm4.734 4.932h-2.718c-.324.666-.918 1.206-1.998 1.206-1.26 0-2.268-.828-2.394-2.304h7.29a5.89 5.89 0 00.072-.972c0-2.97-2.034-4.932-4.914-4.932-2.952 0-5.004 1.998-5.004 5.148 0 3.132 2.106 5.148 5.004 5.148 2.466 0 4.122-1.458 4.662-3.294zm2.091 3.132h2.52v-13.32h-2.52V479zm5.01 0h2.52v-13.32h-2.52V479zm5.01 0h2.52v-9.972h-2.52V479zm1.278-11.16c.882 0 1.548-.648 1.548-1.476s-.666-1.476-1.548-1.476c-.9 0-1.548.648-1.548 1.476s.648 1.476 1.548 1.476zM635.122 479h2.52v-5.85c0-2.754-1.656-4.266-3.978-4.266-1.278 0-2.358.54-3.006 1.386v-1.242h-2.52V479h2.52v-5.508c0-1.602.882-2.466 2.25-2.466 1.332 0 2.214.864 2.214 2.466V479zm4.268-5.022c0 3.114 2.016 5.184 4.554 5.184 1.566 0 2.7-.774 3.294-1.638v1.548c0 1.854-1.08 2.646-2.466 2.646-1.26 0-2.196-.594-2.448-1.494h-2.502c.252 2.286 2.214 3.69 5.022 3.69 3.276 0 4.932-2.142 4.932-4.842v-10.044h-2.538v1.422c-.594-.864-1.728-1.584-3.294-1.584-2.538 0-4.554 1.998-4.554 5.112zm7.848.036c0 1.89-1.26 2.934-2.646 2.934-1.35 0-2.628-1.08-2.628-2.97 0-1.89 1.278-2.898 2.628-2.898 1.386 0 2.646 1.044 2.646 2.934z" fill="#F76F8E"/><defs><linearGradient id="paint0_linear" x1="91" y1="129" x2="168.5" y2="211" gradientUnits="userSpaceOnUse"><stop stop-color="#00D7CF"/><stop offset="1" stop-color="#3E6680"/></linearGradient><linearGradient id="paint1_linear" x1="319" y1="73" x2="396.5" y2="155" gradientUnits="userSpaceOnUse"><stop stop-color="#00D7CF"/><stop offset="1" stop-color="#3E6680"/></linearGradient><linearGradient id="paint2_linear" x1="547" y1="123" x2="624.5" y2="205" gradientUnits="userSpaceOnUse"><stop stop-color="#00D7CF"/><stop offset="1" stop-color="#3E6680"/></linearGradient><linearGradient id="paint3_linear" x1="91" y1="352" x2="168.5" y2="434" gradientUnits="userSpaceOnUse"><stop stop-color="#00D7CF"/><stop offset="1" stop-color="#3E6680"/></linearGradient><linearGradient id="paint4_linear" x1="312" y1="300" x2="389.5" y2="382" gradientUnits="userSpaceOnUse"><stop stop-color="#00D7CF"/><stop offset="1" stop-color="#3E6680"/></linearGradient><linearGradient id="paint5_linear" x1="547" y1="352" x2="624.5" y2="434" gradientUnits="userSpaceOnUse"><stop stop-color="#00D7CF"/><stop offset="1" stop-color="#3E6680"/></linearGradient><filter id="filter0_d" x="0" y="56" width="269" height="269" filterUnits="userSpaceOnUse" color-interpolation-filters="sRGB"><feFlood flood-opacity="0" result="BackgroundImageFix"/><feColorMatrix in="SourceAlpha" values="0 0 0 0 0 0 0 0 0 0 0 0 0 0 0 0 0 0 127 0"/><feOffset/><feGaussianBlur stdDeviation="15"/><feColorMatrix values="0 0 0 0 0.808333 0 0 0 0 0.808333 0 0 0 0 0.808333 0 0 0 0.25 0"/><feBlend in2="BackgroundImageFix" result="effect1_dropShadow"/><feBlend in="SourceGraphic" in2="effect1_dropShadow" result="shape"/></filter><filter id="filter1_d" x="228" y="0" width="269" height="269" filterUnits="userSpaceOnUse" color-interpolation-filters="sRGB"><feFlood flood-opacity="0" result="BackgroundImageFix"/><feColorMatrix in="SourceAlpha" values="0 0 0 0 0 0 0 0 0 0 0 0 0 0 0 0 0 0 127 0"/><feOffset/><feGaussianBlur stdDeviation="15"/><feColorMatrix values="0 0 0 0 0.808333 0 0 0 0 0.808333 0 0 0 0 0.808333 0 0 0 0.25 0"/><feBlend in2="BackgroundImageFix" result="effect1_dropShadow"/><feBlend in="SourceGraphic" in2="effect1_dropShadow" result="shape"/></filter><filter id="filter2_d" x="456" y="56" width="269" height="269" filterUnits="userSpaceOnUse" color-interpolation-filters="sRGB"><feFlood flood-opacity="0" result="BackgroundImageFix"/><feColorMatrix in="SourceAlpha" values="0 0 0 0 0 0 0 0 0 0 0 0 0 0 0 0 0 0 127 0"/><feOffset/><feGaussianBlur stdDeviation="15"/><feColorMatrix values="0 0 0 0 0.808333 0 0 0 0 0.808333 0 0 0 0 0.808333 0 0 0 0.25 0"/><feBlend in2="BackgroundImageFix" result="effect1_dropShadow"/><feBlend in="SourceGraphic" in2="effect1_dropShadow" result="shape"/></filter><filter id="filter3_d" x="0" y="288" width="269" height="269" filterUnits="userSpaceOnUse" color-interpolation-filters="sRGB"><feFlood flood-opacity="0" result="BackgroundImageFix"/><feColorMatrix in="SourceAlpha" values="0 0 0 0 0 0 0 0 0 0 0 0 0 0 0 0 0 0 127 0"/><feOffset/><feGaussianBlur stdDeviation="15"/><feColorMatrix values="0 0 0 0 0.808333 0 0 0 0 0.808333 0 0 0 0 0.808333 0 0 0 0.25 0"/><feBlend in2="BackgroundImageFix" result="effect1_dropShadow"/><feBlend in="SourceGraphic" in2="effect1_dropShadow" result="shape"/></filter><filter id="filter4_d" x="228" y="236" width="269" height="269" filterUnits="userSpaceOnUse" color-interpolation-filters="sRGB"><feFlood flood-opacity="0" result="BackgroundImageFix"/><feColorMatrix in="SourceAlpha" values="0 0 0 0 0 0 0 0 0 0 0 0 0 0 0 0 0 0 127 0"/><feOffset/><feGaussianBlur stdDeviation="15"/><feColorMatrix values="0 0 0 0 0.808333 0 0 0 0 0.808333 0 0 0 0 0.808333 0 0 0 0.25 0"/><feBlend in2="BackgroundImageFix" result="effect1_dropShadow"/><feBlend in="SourceGraphic" in2="effect1_dropShadow" result="shape"/></filter><filter id="filter5_d" x="456" y="288" width="269" height="269" filterUnits="userSpaceOnUse" color-interpolation-filters="sRGB"><feFlood flood-opacity="0" result="BackgroundImageFix"/><feColorMatrix in="SourceAlpha" values="0 0 0 0 0 0 0 0 0 0 0 0 0 0 0 0 0 0 127 0"/><feOffset/><feGaussianBlur stdDeviation="15"/><feColorMatrix values="0 0 0 0 0.808333 0 0 0 0 0.808333 0 0 0 0 0.808333 0 0 0 0.25 0"/><feBlend in2="BackgroundImageFix" result="effect1_dropShadow"/><feBlend in="SourceGraphic" in2="effect1_dropShadow" result="shape"/></filter></defs></svg>