<svg width="63" height="63" viewBox="0 0 63 63" fill="none" xmlns="http://www.w3.org/2000/svg"><path d="M55.679 19.995l-17.104-.369c-.102 5.188-.184 15.787.308 16.673.615 1.107 15.75.184 16.796-.308.836-.394.348-10.828 0-15.996zM18.642 44.85c.225-.615 2.288-1.71 4.306-2.399 2.523-.861 5.414-2.215 7.075-1.907 1.662.308 7.137.923 8.614 1.415 1.476.492 7.198 1.6 7.69 2.4.492.8.37 3.568-.8 3.875-1.169.308-3.322 0-4.552 0-1.23 0-3.876-.615-4.86-.676a12.836 12.836 0 01-1.545-.19c1.224.38 3.453 1.102 4.805 1.543h6.152l1.97-2.83c3.014-1.21 9.252-3.63 10.089-3.63 1.046 0 2.4 1.108 2.953 1.907.554.8.492 2.523-.615 3.2-1.108.676-20.118 8.244-21.287 8.12-1.17-.122-8.306-1.23-9.66-.614-1.082.492-4.142 1.558-5.537 2.03-.881-3.979-3.962-12.243-4.798-12.243z" fill="#3E6680"/><path d="M42.328 11.813h-3.937V8.858a6.89 6.89 0 10-13.782 0v2.954h-3.937a.984.984 0 00-.985.984v21.656a2.962 2.962 0 002.954 2.953h12.797v-1.968H22.64a.984.984 0 01-.985-.985v-.984h13.782V31.5H21.655V13.781h2.953v2.953h1.97v-2.953h9.843v2.953h1.969v-2.953h2.953v2.953h1.968v-3.937a.984.984 0 00-.984-.985zm-5.906 0h-9.844V8.858a4.922 4.922 0 019.844 0v2.954z" fill="#3E6680"/><path d="M56.11 18.703H38.39a.984.984 0 00-.984.985v14.765a2.962 2.962 0 002.953 2.953h13.782a2.962 2.962 0 002.953-2.953V19.687a.985.985 0 00-.985-.984zm-.985 15.75a.984.984 0 01-.984.984H40.359a.984.984 0 01-.984-.984v-.984h15.75v.984zm0-2.953h-15.75V20.672h15.75V31.5z" fill="#3E6680"/><path d="M47.25 29.531a4.928 4.928 0 004.922-4.922v-1.968h-1.969v1.968a2.953 2.953 0 01-5.906 0v-1.968h-1.969v1.968a4.928 4.928 0 004.922 4.922z" fill="#fff"/><path d="M61.358 43.854a4.045 4.045 0 00-5.095-2.03l-8.79 3.2a3.938 3.938 0 00-3.125-2.913l-11.874-2.094a14.782 14.782 0 00-7.615.666l-1.53.562a16.651 16.651 0 00-4.035 2.145l-.218-.597a.984.984 0 00-1.26-.59L6.713 46.237a.984.984 0 00-.59 1.261l-4.627 1.683.673 1.85 4.627-1.683 4.015 11.033 1.85-.674-4.347-11.956 9.253-3.367 5.05 13.88-2.362.861.674 1.85 3.286-1.202a.986.986 0 00.59-1.262l-.336-.925 2.264-.825c1.423-.52 2.94-.734 4.452-.628l4.67.324c1.786.128 3.58-.124 5.261-.741l17.995-6.55a3.937 3.937 0 002.245-5.315l.001.002zm-1.81 2.444a1.95 1.95 0 01-1.109 1.019l-17.994 6.55c-1.423.521-2.94.735-4.452.627l-4.67-.324a12.757 12.757 0 00-5.26.741l-2.27.826-3.796-10.426a14.692 14.692 0 014.007-2.221l1.528-.556a12.81 12.81 0 016.6-.578l11.87 2.094a1.968 1.968 0 11-.684 3.877l-10.663-1.88-.343 1.94 10.664 1.88a3.92 3.92 0 004.435-2.727l9.521-3.466a2.097 2.097 0 012.626.984 1.978 1.978 0 01-.01 1.64z" fill="#3E6680"/><path d="M17.038 43.75l-9.41 3.356a1 1 0 00-.614 1.257l3.784 11.407a1 1 0 00.894.683l9.037.5a1 1 0 00.578-.147l2.503-1.537a1 1 0 00.395-1.247l-5.912-13.725a1 1 0 00-1.255-.546z" fill="#3E6680" stroke="#3E6680"/><path d="M21.226 35.93c.246 1.23 9.536.964 14.15.676V16.92H43l-.795-4h-21.41c.04 7.158.184 21.78.43 23.01z" fill="#3E6680"/><rect x="39.375" y="32.115" width="15.873" height="1.846" rx=".923" fill="#fff"/><rect x="21.533" y="30.023" width="10.459" height="1.846" rx=".923" fill="#fff"/><rect x="21.533" y="33.1" width="6.768" height="1.846" rx=".923" fill="#fff"/></svg>