<svg width="553" height="540" viewBox="0 0 553 540" fill="none" xmlns="http://www.w3.org/2000/svg"><path d="M281.19 443.158c-42.996.005-84.664-14.766-117.903-41.798-33.24-27.031-55.995-64.649-64.389-106.445-8.393-41.796-1.905-85.184 18.358-122.771 20.263-37.586 53.048-67.046 92.769-83.36 39.721-16.313 83.92-18.47 125.066-6.105 41.146 12.365 76.694 38.489 100.586 73.92 23.892 35.43 34.65 77.976 30.441 120.387-4.208 42.412-23.123 82.065-53.522 112.203a184.74 184.74 0 01-60.249 40.031 186.058 186.058 0 01-71.157 13.938zm0-367.876c-42.876 0-84.425 14.734-117.568 41.694-33.144 26.959-55.831 64.475-64.196 106.155-8.365 41.681-1.89 84.946 18.321 122.425 20.212 37.479 52.909 66.852 92.521 83.115 39.611 16.263 83.687 18.41 124.716 6.074 41.03-12.336 76.475-38.391 100.295-73.726 23.821-35.335 34.543-77.763 30.341-120.055-4.202-42.292-23.07-81.831-53.387-111.881a184.223 184.223 0 00-60.084-39.912 185.53 185.53 0 00-70.959-13.89z" fill="#00D7CF"/><path d="M281.19 465.093c-51.402-.061-100.949-19.044-139.03-53.265-38.08-34.222-61.98-81.242-67.061-131.941-5.082-50.698 9.016-101.461 39.558-142.44s75.352-69.253 125.738-79.338c50.385-10.085 102.753-1.262 146.946 24.758s77.061 67.382 92.227 116.062c15.165 48.68 11.549 101.208-10.149 147.395-21.698 46.187-59.93 82.739-107.28 102.567a208.313 208.313 0 01-80.949 16.202zm0-411.675c-51.252.064-100.654 18.993-138.621 53.115-37.968 34.123-61.796 81.007-66.862 131.557-5.065 50.551 8.993 101.164 39.447 142.023 30.454 40.858 75.134 69.049 125.372 79.103 50.238 10.055 102.454 1.256 146.517-24.689 44.063-25.944 76.834-67.186 91.955-115.724 15.12-48.538 11.513-100.913-10.122-146.964-21.635-46.051-59.755-82.497-106.967-102.266a207.589 207.589 0 00-80.719-16.155z" fill="#00D7CF"/><path d="M281.19 404.612c-36.292-.053-71.271-13.464-98.152-37.632-26.881-24.167-43.748-57.369-47.329-93.165-3.581-35.796 6.379-71.635 27.947-100.564 21.569-28.93 53.21-48.888 88.784-56.004 35.575-7.117 72.549-.883 103.749 17.49 31.201 18.374 54.404 47.579 65.11 81.949a143.938 143.938 0 01-7.168 104.067c-15.32 32.61-42.314 58.417-75.744 72.417a147.21 147.21 0 01-57.197 11.442zm0-290.869c-36.216.037-71.126 13.404-97.961 37.51-26.834 24.106-43.678 57.231-47.266 92.95-3.587 35.719 6.338 71.485 27.851 100.362 21.512 28.876 53.079 48.803 88.576 55.916 35.498 7.113 72.395.904 103.536-17.421 31.14-18.326 54.303-47.462 64.996-81.758a143.626 143.626 0 00-7.126-103.849c-15.28-32.544-42.21-58.303-75.567-72.281a146.628 146.628 0 00-57.039-11.441v.012z" fill="#00D7CF"/><path opacity=".38" d="M281.19 490.962c-53.995-.049-106.313-18.591-148.096-52.488C91.31 404.577 62.63 357.41 51.908 304.958 41.186 252.506 49.082 197.994 74.26 150.65c25.177-47.343 66.088-84.607 115.805-105.483 57.209-23.954 121.675-24.402 179.217-1.245 57.543 23.157 103.447 68.022 127.615 124.726a230.208 230.208 0 011.256 177.634c-23.364 57.034-68.629 102.532-125.838 126.487a234.38 234.38 0 01-91.125 18.193zm0-463.425c-57.707.066-113.333 21.373-156.087 59.79-42.754 38.416-69.588 91.203-75.297 148.12-5.709 56.917 10.115 113.907 44.401 159.914 34.287 46.008 84.592 77.753 141.157 89.078 56.565 11.325 115.357 1.423 164.973-27.787 49.615-29.209 86.516-75.643 103.545-130.293 17.029-54.651 12.971-113.623-11.387-165.476-24.357-51.853-67.277-92.89-120.434-115.152a233.81 233.81 0 00-90.871-18.158v-.036z" fill="#BECBFC"/><path opacity=".18" d="M281.19 518.654c-60.465-.013-119.066-20.749-165.869-58.693-46.803-37.943-78.929-90.76-90.932-149.498-12.004-58.738-3.147-119.783 25.07-172.788C77.677 84.67 123.517 42.966 179.211 19.633c63.828-25.766 135.327-25.575 199.014.531C441.912 46.271 492.66 96.192 519.48 159.118a257.635 257.635 0 012.04 197.245c-25.513 63.457-75.218 114.399-138.351 141.794a262.358 262.358 0 01-101.979 20.497zM281.19 0c-60.261.063-118.649 20.764-165.279 58.6-46.63 37.834-78.637 90.477-90.602 149.016-11.965 58.54-3.154 119.379 24.943 172.218 28.097 52.84 73.752 94.432 129.237 117.737 63.646 25.651 134.922 25.432 198.404-.612 63.483-26.044 114.067-75.816 140.804-138.547a256.936 256.936 0 002.062-196.641C495.342 98.502 445.814 47.698 382.89 20.353A261.628 261.628 0 00281.19 0z" fill="#BECBFC"/><path d="M281.19 498.722c-55.777-.087-109.811-19.268-152.961-54.298-43.15-35.03-72.767-83.758-83.841-137.941-11.074-54.183-2.924-110.495 23.07-159.408 25.994-48.913 68.237-87.424 119.582-109.02 58.833-23.27 124.527-22.75 182.977 1.451 58.45 24.202 104.997 70.153 129.646 127.99a237.903 237.903 0 012.192 181.353c-23.244 58.406-68.667 105.45-126.515 131.032a242.267 242.267 0 01-94.15 18.841zm0-478.836c-55.633.053-109.539 19.16-152.59 54.086-43.05 34.926-72.601 83.525-83.649 137.568-11.047 54.044-2.912 110.211 23.027 158.992 25.94 48.78 68.091 87.177 119.316 108.689 58.805 23.946 124.769 23.919 183.554-.074 58.786-23.993 105.641-70.013 130.384-128.057a237.19 237.19 0 001.75-181.924c-23.621-58.502-69.583-105.4-127.896-130.499a241.707 241.707 0 00-93.896-18.78z" fill="#00D7CF"/><path opacity=".8" d="M283.05 78.823c2.199-9.442-3.741-18.863-13.267-21.043-9.526-2.18-19.031 3.707-21.23 13.15-2.2 9.441 3.74 18.862 13.266 21.042 9.526 2.18 19.031-3.707 21.231-13.149z" fill="#00D7CF" fill-opacity=".37"/><path d="M276.108 87.023c-.157-3.322-2.19-5.493-3.63-5.337a28.069 28.069 0 01-4.683-.312 3.944 3.944 0 01-.205-1.871 7.72 7.72 0 002.088-2.551 7.66 7.66 0 00.828-3.182 1.444 1.444 0 00.871-1.031c.206-.684 0-1.331-.351-1.451a.513.513 0 00-.448.084c0-3.598-.097-6.308-4.84-6.308-4.44 0-4.767 2.698-4.84 6.224a.584.584 0 00-.411-.132c-.412 0-.678.66-.593 1.367.085.708.496 1.2.907 1.2a.517.517 0 00.146 0 7.908 7.908 0 00.779 3.135 8 8 0 001.967 2.573 3.859 3.859 0 01-.193 1.99 27.93 27.93 0 01-4.671.313c-1.403-.156-3.436 2.015-3.63 5.337-.193 3.322 9.414 5.06 10.37 5.24 1.113-.227 10.684-2.134 10.539-5.288z" fill="#00D7CF"/><path opacity=".8" d="M164.401 456.77c14.882 0 26.946-11.958 26.946-26.709s-12.064-26.709-26.946-26.709c-14.882 0-26.947 11.958-26.947 26.709s12.065 26.709 26.947 26.709z" fill="#00D7CF" fill-opacity=".24"/><path d="M180.07 448.53c-.242-5.061-3.327-8.395-5.457-8.119a42.702 42.702 0 01-7.127-.468 5.783 5.783 0 01-.314-2.854c2.311-1.475 4.029-4.797 4.428-8.731a2.108 2.108 0 001.331-1.559c.315-1.044.073-2.027-.532-2.219a.869.869 0 00-.69.132c0-5.445-.145-9.594-7.26-9.594-6.764 0-7.26 4.101-7.26 9.486a.846.846 0 00-.617-.216c-.629.072-1.041 1.008-.907 2.087.133 1.079.75 1.895 1.379 1.811a.542.542 0 00.23-.06c.363 3.874 1.972 7.112 4.174 8.683a5.941 5.941 0 01-.302 3.034 42.559 42.559 0 01-7.115.468c-2.142-.24-5.227 3.058-5.457 8.119-.23 4.797 14.326 7.7 15.73 7.975 1.44-.323 15.984-3.166 15.766-7.975z" fill="#00D7CF"/><path opacity=".8" d="M503.115 214.495c1.965-10.781-5.26-21.1-16.137-23.047-10.877-1.948-21.288 5.213-23.252 15.994-1.965 10.781 5.259 21.099 16.136 23.047 10.877 1.947 21.288-5.213 23.253-15.994z" fill="#00D7CF" fill-opacity=".31"/><path d="M495.069 224.715c-.169-3.766-2.42-6.213-4.053-5.997a32.714 32.714 0 01-5.288-.348 4.228 4.228 0 01-.23-2.122 8.76 8.76 0 002.354-2.885 8.69 8.69 0 00.938-3.592 1.631 1.631 0 00.98-1.199c.23-.779 0-1.511-.388-1.643a.672.672 0 00-.52.084c0-4.03-.109-7.124-5.421-7.124-5.021 0-5.396 3.046-5.42 7.04a.698.698 0 00-.46-.156c-.472 0-.775.756-.678 1.559.097.804.557 1.403 1.029 1.344a.401.401 0 00.169 0 8.977 8.977 0 00.884 3.543 9.053 9.053 0 002.226 2.909 4.472 4.472 0 01-.23 2.254c-1.75.259-3.519.375-5.288.348-1.585-.18-3.872 2.267-4.053 5.997-.17 3.598 10.648 5.72 11.725 5.924 1.089-.239 11.894-2.338 11.724-5.936zM93.76 333.504a6.18 6.18 0 01-1.055 3.452 6.259 6.259 0 01-2.813 2.288 6.319 6.319 0 01-3.622.353 6.279 6.279 0 01-3.209-1.7 6.197 6.197 0 01-1.715-3.181 6.16 6.16 0 01.356-3.589 6.217 6.217 0 012.309-2.788 6.305 6.305 0 013.482-1.047c1.663 0 3.257.654 4.432 1.819a6.184 6.184 0 011.836 4.393zm401.636-59.294c0 1.229-.367 2.43-1.056 3.452a6.256 6.256 0 01-2.813 2.288 6.318 6.318 0 01-6.831-1.347 6.198 6.198 0 01-1.715-3.181 6.154 6.154 0 01.357-3.589 6.222 6.222 0 012.308-2.788 6.306 6.306 0 017.914.773 6.182 6.182 0 011.836 4.392zM341.787 63.757a3.907 3.907 0 01-1.871 1.27 3.94 3.94 0 01-2.266.026 3.914 3.914 0 01-1.901-1.224 3.84 3.84 0 01-.483-4.274c.354-.68.904-1.24 1.58-1.612a3.936 3.936 0 014.324.357 3.847 3.847 0 01.617 5.457zm-20.28 374.676a3.84 3.84 0 01-.277 2.233 3.889 3.889 0 01-1.483 1.703 3.935 3.935 0 01-4.343-.107 3.876 3.876 0 01-1.395-1.774 3.842 3.842 0 01-.165-2.244c.17-.748.56-1.429 1.121-1.957a3.93 3.93 0 012.029-1.009 3.951 3.951 0 012.912.656 3.883 3.883 0 011.601 2.499zm-69.502 57.038c.129.755.03 1.531-.285 2.229a3.878 3.878 0 01-1.484 1.698 3.937 3.937 0 01-4.338-.112 3.875 3.875 0 01-1.393-1.773 3.84 3.84 0 01.95-4.196 3.927 3.927 0 013.553-.975 3.905 3.905 0 012.45 1.714c.275.431.46.912.547 1.415zm270.616-192.549c.13.755.032 1.531-.283 2.231a3.9 3.9 0 01-1.487 1.699 3.932 3.932 0 01-4.34-.117 3.878 3.878 0 01-1.392-1.775 3.846 3.846 0 01.96-4.198 3.927 3.927 0 012.029-1.007 3.939 3.939 0 012.921.652 3.84 3.84 0 011.592 2.515z" fill="#00D7CF"/><path d="M127.81 74.226c.134.76.038 1.54-.278 2.245a3.891 3.891 0 01-1.492 1.711 3.944 3.944 0 01-4.364-.12 3.886 3.886 0 01-1.394-1.791 3.857 3.857 0 01.991-4.215 3.933 3.933 0 012.048-.996 3.935 3.935 0 012.903.666 3.864 3.864 0 011.586 2.5z" fill="#819FDE"/><path opacity=".8" d="M40.775 236.373c7.23 0 13.092-5.81 13.092-12.977 0-7.167-5.861-12.977-13.092-12.977-7.23 0-13.092 5.81-13.092 12.977 0 7.167 5.861 12.977 13.092 12.977z" fill="#00D7CF" fill-opacity=".29"/><path d="M48.386 232.367c-.121-2.399-1.61-4.066-2.65-3.946a21.611 21.611 0 01-3.485-.228 2.771 2.771 0 01-.157-1.391 5.712 5.712 0 001.542-1.884 5.66 5.66 0 00.612-2.35 1.022 1.022 0 00.641-.767c.157-.504 0-.983-.254-1.067a.397.397 0 00-.339 0c0-2.639-.072-4.666-3.545-4.666-3.28 0-3.521 1.991-3.533 4.606a.436.436 0 00-.303-.096c-.315 0-.508.491-.448 1.007.06.516.363.924.678.888h.109a5.87 5.87 0 002.033 4.221 3.115 3.115 0 01-.146 1.475 21.657 21.657 0 01-3.46.228c-1.04-.12-2.541 1.487-2.65 3.946-.109 2.458 6.958 3.729 7.66 3.873.737-.12 7.804-1.523 7.695-3.849z" fill="#00D7CF"/><path opacity=".8" d="M453.143 264.017a166.7 166.7 0 00-18.997-77.379c-12.501-23.909-30.622-44.488-52.832-59.999-22.21-15.511-47.859-25.499-74.782-29.122a170.81 170.81 0 00-79.908 8.307c-25.579 9.08-48.579 24.125-67.059 43.866-18.48 19.741-31.899 43.598-39.124 69.558a166.467 166.467 0 00-2.386 79.602c5.656 26.339 17.622 50.944 34.887 71.737h261.687c24.954-30.001 38.574-67.688 38.514-106.57z" fill="#819FDE"/><path d="M407.877 298.904c-9.801-23.747-20.957-28.184-20.957-28.184s.351-.468.907-1.295a24.359 24.359 0 0110.89 9.594c.044.06.109.102.183.117a.302.302 0 00.338-.417 25.053 25.053 0 00-11.132-9.834l.798-1.199a42.01 42.01 0 019.959 3.538c.338.168.653-.336.302-.504a42.097 42.097 0 00-9.934-3.598c6.05-9.894 19.106-37.179-19.082-40.249a21.903 21.903 0 018.966-5.349c.363-.132.206-.696-.157-.576a23.03 23.03 0 00-8.978 5.241 29.784 29.784 0 011.561-4.881c.145-.348-.436-.504-.581-.156a29.794 29.794 0 00-1.67 5.349 64.295 64.295 0 00-3.896-3.31 30.25 30.25 0 00-3.485-4.257c-6.51-6.657-15.645-8.875-24.769-8a.31.31 0 00-.172.066.307.307 0 00-.106.15 24.387 24.387 0 00-16.238 5.829c-6.401 5.289-7.26 13.408-5.675 21.216.097 1.199.327 2.398.448 3.238a45.19 45.19 0 006.679 16.358c-3.908.66-10.951 2.987-9.486 11.298 2.008 11.381 11.458 25.713.266 27.212-11.193 1.499-16.589 26.889 22.99 50.611 39.579 23.723 77.307 1.26 61.71-17.534.072.036 20.134-6.74 10.321-30.474zm-91.403-55.456a42.033 42.033 0 008.119 14.127c-.608.021-1.213.073-1.815.156a47.637 47.637 0 01-6.304-14.283zm45.302-23.819a28.92 28.92 0 011.997 2.315c-5.518-4.102-14.291-9.451-23.656-10.554 8.083-.168 15.924 2.243 21.659 8.239z" fill="#5C78B5"/><path d="M369.968 258.752s-4.332 2.183-5.3 4.137c-.968 1.955 1.04 14.236 1.04 14.236l25.144 19.777s6.788 51.45-9.982 65.302c-16.771 13.853-78.65-48.68-78.65-48.68l17.569-22.163 16.371-5.133 2.795-11.873s-17.557-8.251-3.388-36.579l34.401 20.976z" fill="#507CC7" opacity=".4"/><path d="M338.157 233.183l-8.785-1.571s3.195 4.797 11.979 2.77c8.785-2.027-3.194-1.199-3.194-1.199z" fill="#4375F1" opacity=".5"/><path d="M337.358 292.549l-3.63-6.32s-10.43 1.019-14.217 5.396c-3.788 4.378-27.83 47.972-27.83 47.972s-10.406 4.893-18.973 9.067a14.008 14.008 0 015.989 8.395c7.514-2.698 17.352-6.8 20.909-9.33 0 0 23.196-17.594 25.725-29.491 2.529-11.897 12.027-25.689 12.027-25.689z" fill="#E2B187"/><path d="M314.598 336.479s-9.583-7.52 5.191-26.913c13.467-17.677 11.18 5.541 11.18 5.541l-9.837 21.228-6.534.144z" fill="#E2B187" opacity=".31"/><path d="M272.756 348.652l-23.595 11.513c-1.21.624-11.362-2.506-12.632-1.87-1.271.635-8.204 4.377-10.733 5.001-2.529.623 6.316 1.882 10.104 0 3.787-1.883 5.057 1.882 8.216 2.506 3.158.624 5.045 1.199 6.945 0 0 0 14.52-4.006 27.685-8.707a14.013 14.013 0 00-5.99-8.443z" fill="#E2B187"/><path d="M343.868 270.673s1.9 6.884-6.316 15.027l-4.417 8.132 9.475 10.637 9.462 3.131 20.207-23.159-8.833-5.625-2.529-25.665-17.049 17.522z" fill="#EDBA8F"/><path d="M342.549 275.146s17.569-.791 17.968-11.477c.4-10.686-19.965 7.124-17.968 11.477z" fill="#AF703F" opacity=".28"/><path d="M340.746 281.934s3.751 10.65 22.7-3.118c0 0 11.797 6.236 15.028 8.203 7.187 4.342 8.712 3.598 10.612 10.506l-16.807 55.168 5.687 21.899-60.633.108 5.372-24.358a19.732 19.732 0 00-1.24-8.81 19.878 19.878 0 00-4.991-7.392c-8.664-8.311 2.964-22.055 12.1-47.085.75-2.111 12.172-5.121 12.172-5.121z" fill="#F76F8E"/><path d="M371.686 307.587s-10.769 13.852-9.571 40.369c0 0-33.251 11.346-47.372 10.614-14.12-.731 1.852 9.595 1.852 9.595s39.929 2.998 58.285-9.595c18.356-12.593-3.194-50.971-3.194-50.971" fill="#A172AE" opacity=".31"/><path d="M317.829 359.877l-15.633-6.596-6.522-4.857a2.098 2.098 0 00-1.428-.396l-7.526.672a1.825 1.825 0 00-.847.324c-1.307.995-5.579 4.257-4.514 4.257a12.1 12.1 0 005.687-1.871s5.675 0 6.317-.635a23.444 23.444 0 003.787 3.13c1.21.635.629 0 .629 0l-8.47 2.554a1.978 1.978 0 00-1.065.768c-1.065 1.535-3.981 5.684-4.997 6.692 0 0 3.158 1.259 5.675-2.495s9.474-3.766 10.103-3.13c0 0-8.833 5.001-11.362 10.002 0 0 1.21 3.082 3.158.636a21.545 21.545 0 0110.733-6.884l-3.63 4.065a1.187 1.187 0 00-.186 1.362c.076.146.18.274.307.377l3.473 2.951s.629-2.507-.629-3.754l3.158-3.13s3.485 6.884 13.733 2.818l.049-6.86z" fill="#EDBA8F"/><path d="M345.38 354.948c-13.479 2.795-28.616 5.097-28.616 5.097l.266 6.681a202.314 202.314 0 0033.699-1.835 12.539 12.539 0 00-1.494-5.595 12.653 12.653 0 00-3.855-4.348z" fill="#EDBA8F"/><path d="M386.46 291.757c-8.155-3.478-15.089 15.783-15.089 15.783-8.845 18.146-6.703 41.976-6.703 41.976-2.94 1.703-10.805 3.658-19.36 5.421a12.67 12.67 0 013.855 4.347 12.545 12.545 0 011.493 5.595c18.15-2.674 25.967-7.195 25.967-7.195 7.659-11.286 18.005-62.413 9.837-65.927zm-39.119-68.456s-17.57 13.06-15.258 33.149c1.064 9.187 3.158 11.993 6.872 14.739 4.393 3.167 19.022 1.2 22.845-6.116l2.021-5.925s3.63 3.179 7.199-1.559c3.57-4.737 2.832-12.257-2.42-8.719l3.231-9.486-3.158-8.324-21.332-7.759z" fill="#EDBA8F"/><path d="M334.745 234.083s6.606 2.674 12.596-8.803c0 0 1.597 18.601 13.975 18.205l-3.63-3.166s1.416 13.06 9.68 8.311c8.264-4.749-16.94-29.683-16.94-29.683l-16.795 5.937 1.005 9.199" fill="#AF703F" opacity=".28"/><path d="M371.686 232.007l-12.766-6.332-17.968-4.353s-21.962 7.519-11.979 11.873c8.76 3.825 16.286-4.797 18.005-7.028a16.667 16.667 0 002.613 10.541c2.154 3.107 5.554 5.193 10.116 6.249-.218 6.14 7.26 7.195 7.26 7.195l3.182-2.398 6.389-1.979-4.852-13.768zm-21.78 4.474a14.572 14.572 0 01-2.42-6.62c1.948 7.327 12.257 12.436 12.257 12.436a2.325 2.325 0 000 .264 15.75 15.75 0 01-9.861-6.08h.024z" fill="#5C78B5"/><path d="M359.719 219.127s4.84-2.159 9.571 7.34c0 0 6.05 13.851 0 26.516h-1.21s2.408-23.386-8.361-33.856z" fill="#43464A"/><path d="M369.29 259.712c3.087 0 5.59-2.481 5.59-5.541 0-3.061-2.503-5.542-5.59-5.542-3.087 0-5.59 2.481-5.59 5.542 0 3.06 2.503 5.541 5.59 5.541z" fill="#F76F8E"/><path d="M349.313 249.613c-.327 1.272-.932 2.219-1.355 2.111-.424-.108-.521-1.199-.194-2.494.327-1.296.92-2.219 1.355-2.111.436.108.472 1.223.194 2.494zm-10.757-2.111c-.109 1.307-.557 2.339-.992 2.303-.436-.036-.714-1.116-.605-2.399.109-1.283.556-2.398.992-2.302.436.096.75 1.091.605 2.398z" fill="#43464A"/><path d="M337.358 263.609c2.329.544 4.76.493 7.064-.146a14.188 14.188 0 006.113-3.512s0 6.788-9.486 7.832c0 0-1.585 0-3.691-4.174z" fill="#fff"/><path d="M336.281 241.337a2.7 2.7 0 01.521-.995c.266-.301.596-.538.968-.696a2.111 2.111 0 011.21-.192c.193.049.38.122.556.216.178.101.338.23.472.384v.072a2.115 2.115 0 01-.581.084 3.732 3.732 0 01-.496 0h-.472a2.07 2.07 0 00-.472 0 2.428 2.428 0 00-.883.384 2.788 2.788 0 00-.726.731l-.097.012zm16.105.001a2.382 2.382 0 00-.52-.995 2.59 2.59 0 00-.968-.696 2.095 2.095 0 00-1.21-.192 2.36 2.36 0 00-.569.216 1.73 1.73 0 00-.459.384v.072c.184.054.376.083.568.084.169.01.339.01.508 0h.46a2.07 2.07 0 01.472 0c.319.062.621.193.883.383.292.191.539.44.726.732l.109.012z" fill="#4375F1"/><path d="M340.637 258.752s-5.457-2.074-4.198-2.914c1.004-.66 3.315-4.198 4.234-6.26a.28.28 0 01.443-.066c.041.04.068.093.078.15.169 2.134.363 6.38-.557 9.09z" fill="#E79D90"/><path d="M369.29 256.545a2.385 2.385 0 002.396-2.374 2.386 2.386 0 00-2.396-2.375 2.386 2.386 0 00-2.396 2.375 2.385 2.385 0 002.396 2.374z" fill="#43464A"/><path d="M364.196 265.648h-18.053v-.923h17.569c.726-1.379 4.477-8.552 4.84-9.367l.738.408c-.411.923-4.84 9.295-4.973 9.655l-.121.227z" fill="#43464A"/><path d="M345.344 266.031c1.323 0 2.396-.44 2.396-.983 0-.543-1.073-.984-2.396-.984s-2.396.441-2.396.984c0 .543 1.073.983 2.396.983z" fill="#43464A"/><path d="M421.598 376.045H146.517a3.646 3.646 0 01-2.567-1.054 3.581 3.581 0 01-1.063-2.544c0-.954.382-1.869 1.063-2.544a3.646 3.646 0 012.567-1.054h275.081c.963 0 1.886.379 2.567 1.054a3.581 3.581 0 011.063 2.544c0 .954-.382 1.869-1.063 2.544a3.646 3.646 0 01-2.567 1.054z" fill="#CBCFD6"/><path d="M164.364 282.282l2.348 67.773a7.764 7.764 0 002.391 5.35 7.902 7.902 0 005.474 2.193h98.336a7.94 7.94 0 003.076-.622 7.893 7.893 0 002.587-1.761 7.765 7.765 0 002.215-5.688l-2.348-67.785a7.777 7.777 0 00-2.399-5.339 7.914 7.914 0 00-5.466-2.193h-98.336a7.922 7.922 0 00-5.671 2.376 7.746 7.746 0 00-2.207 5.696z" fill="#838BC0"/><path d="M229.959 326.585s-7.587 29.287 0 37.598c7.586 8.311-41.915-3.166-41.915-3.166s6.788-24.142 25.543-34.432l8.785 5.541 7.587-5.541z" fill="#838BC0" opacity=".61"/><path d="M213.587 326.585h16.372s-24.745 39.577-2.59 42.347h-34.134s-6.788-15.83 20.352-42.347z" fill="#838BC0"/><path d="M226.172 169.917c1.409-45.456-34.627-83.438-80.488-84.835-45.861-1.396-84.182 34.321-85.591 79.777-1.41 45.456 34.626 83.437 80.488 84.834 45.861 1.397 84.182-34.32 85.591-79.776z" fill="#819FDE"/><path d="M214.713 238.323c39.527-39.178 39.527-102.698 0-141.877-39.528-39.178-103.615-39.178-143.142 0-39.528 39.179-39.528 102.699 0 141.877 39.527 39.178 103.614 39.178 143.142 0z" fill="#5275A0"/><path d="M134.477 174.344s-21.683 0-29.269 3.754c-7.587 3.753-11.374 13.432-9.753 19.872 1.621 6.44-7.042 22.559 2.166 31.182 8.276 7.712 14.798 6.764 17.617 5.721.315-.12.593-.252.811-.36 2.166-1.067 0 28.472 0 28.472s54.728 3.226 57.983 0c3.255-3.227 4.332-70.903-3.255-78.423-7.586-7.52-28.713-10.194-28.713-10.194l-7.587-.024z" fill="#00D7CF" fill-opacity=".73"/><path d="M132.578 155.311l-.787 19.033 17.775 11.681a1.21 1.21 0 001.076.067 1.201 1.201 0 00.703-.81l2.928-15.507-17.339-20.952-4.356 6.488z" fill="#E7B59D"/><path d="M131.223 167.388s2.71 2.159 4.84 0c0 0 12.463 20.952 23.304 17.186 10.842-3.766-11.386-20.94-11.386-20.94l-11.35-8.479-6.534 4.797 1.126 7.436z" fill="#E7B59D" opacity=".45"/><path d="M133.655 148.331c8.675-.54 9.752-14.512 9.752-16.119 0-1.607 13.552-5.912 16.807-4.293 3.255 1.619 3.908 11.369 4.066 12.077 4.755-2.855 8.93-13.049 6.764-19.057-2.699-7.52-5.954-4.798-8.119-3.227-2.166 1.572-2.166-5.912-13.552-12.352-11.387-6.44 1.621 7.519-11.919 6.44-13.54-1.08-14.629 12.353-14.629 12.353-7.042 0-11.93 5.912-6.51 11.825 5.421 5.913 1.089 6.44 0 11.813-.556 2.795 4.913 3.994 10.285 4.498a9.28 9.28 0 013.07-2.781 9.36 9.36 0 013.985-1.177z" fill="#2E5271"/><path d="M147.751 156.354c9.971 4.306 19.239-.683 22.555-2.842-2.42-3.79-4.49-7.58-4.671-11.118a28.558 28.558 0 00-.69-4.797l.133-.084c-.157-.707-1.778-8.071-4.84-9.594-3.061-1.523-16.807 2.686-16.807 4.293 0 1.284-.677 10.362-5.311 14.308a18.377 18.377 0 009.631 9.834z" fill="#E7B59D"/><path d="M170.306 153.536c-3.316 2.159-12.584 7.195-22.555 2.842a18.378 18.378 0 01-9.68-9.858 7.48 7.48 0 01-4.441 1.811 9.36 9.36 0 00-3.984 1.177 9.28 9.28 0 00-3.07 2.781c3.247.278 6.506.39 9.765.335 2.71 30.618 35.223 28.459 40.644 20.388 3.569-5.241-2.154-12.34-6.679-19.476z" fill="#2E5271"/><path d="M116.269 157.671l24.888 1.371.71-12.67-24.887-1.37-.711 12.669z" fill="#819FDE"/><path d="M115.238 167.663s0-16.658 2.711-18.805c2.71-2.146 9.208-10.206 12.463-8.047 3.255 2.159 1.621 3.214 3.787 4.294 2.166 1.079 1.089 2.686 2.711 3.753 1.621 1.068 3.799 5.373 2.71 5.373h-4.84s-7.587 13.972-10.89 13.432l-.545 2.147h-8.119l.012-2.147z" fill="#E7B59D"/><path d="M123.091 169.547s1.089 53.165-3.787 56.367c-4.876 3.202-17.884-.539-15.173-11.285 2.71-10.746 12.463-49.879 12.463-49.879l6.497 4.797z" fill="#E7B59D"/><path d="M148.017 159.868s9.487 2.819 13.806 1.871a.453.453 0 01.43.137.443.443 0 01.091.439 24.15 24.15 0 00-1.319 4.545c0 1.068-9.753-.539-13.008-6.992z" fill="#EFFDFF"/><path d="M158.641 143.762s12.657 7.543 9.22 10.793c-3.436 3.251-6.05 2.735-6.05 2.735s-4.465-11.609-3.17-13.528z" fill="#E19F9D"/><path d="M148.017 146.448a3.072 3.072 0 01.545-1.943 2.616 2.616 0 011.936-1.091 3.584 3.584 0 012.057.563c.277.189.54.397.786.624.231.242.445.498.642.767a6.35 6.35 0 01-.92-.323c-.29-.108-.593-.18-.871-.3a4.73 4.73 0 00-1.622-.252 2.432 2.432 0 00-1.367.564 6.918 6.918 0 00-1.186 1.391zm17.654-5.181a2.406 2.406 0 00-1.065-1.2 2.064 2.064 0 00-1.79-.131 2.784 2.784 0 00-1.307 1.115c-.14.23-.262.471-.363.72a6.16 6.16 0 00-.206.779c.201-.171.391-.356.569-.551.169-.18.363-.336.532-.516a3.816 3.816 0 011.089-.744 1.858 1.858 0 011.21 0c.467.113.915.291 1.331.528z" fill="#9A6253"/><path d="M145.186 142.286a5.971 5.971 0 011.028-2.458c1.392-1.931 3.63-2.171 5.857-1.739 1.028.203 1.21-1.392.23-1.595-2.614-.516-5.336-.12-7.115 2.014a7.452 7.452 0 00-1.609 3.598.8.8 0 00.154.598.82.82 0 001.138.161.808.808 0 00.317-.531v-.048zm13.903-6.691a4.794 4.794 0 012.033-.78c1.948-.288 3.363.899 4.356 2.398.459.72 1.536 0 1.077-.767a5.734 5.734 0 00-2.174-2.25 5.8 5.8 0 00-3.042-.784 6.298 6.298 0 00-3.037 1.067.66.66 0 00.291 1.187.673.673 0 00.496-.119v.048z" fill="#2E5271"/><path d="M330.074 84.96h148.624a4.73 4.73 0 013.329 1.366 4.647 4.647 0 011.378 3.3v37.178a4.603 4.603 0 01-.547 2.187 4.65 4.65 0 01-1.522 1.674l-23.764 15.927a1.591 1.591 0 01-.928.284 1.59 1.59 0 01-.921-.305 1.564 1.564 0 01-.571-1.742l4.755-15.591H330.074a4.728 4.728 0 01-3.32-1.37 4.643 4.643 0 01-1.375-3.295V89.625a4.64 4.64 0 011.375-3.294 4.727 4.727 0 013.32-1.371z" fill="#838BC0"/><path d="M452.236 133.593l5.263-4.354h15.367l-19.747 10.878-.883-6.524z" fill="#606060" opacity=".22"/><path d="M343.335 96.821h124.243a2 2 0 001.411-.572 1.97 1.97 0 00.586-1.395c0-.525-.211-1.028-.585-1.4a2.004 2.004 0 00-1.412-.579H343.335c-.529 0-1.037.209-1.411.58a1.968 1.968 0 00-.433 2.155 1.982 1.982 0 001.844 1.211zm0 10.027h124.243c.53 0 1.038-.209 1.412-.58a1.97 1.97 0 00.585-1.399c0-.525-.211-1.029-.585-1.4a2.004 2.004 0 00-1.412-.579H343.335c-.529 0-1.037.208-1.411.579a1.97 1.97 0 000 2.799c.374.371.882.58 1.411.58zm63.526 10.013h61.286a1.41 1.41 0 001.416-1.403v-1.152a1.41 1.41 0 00-1.416-1.403h-61.286a1.41 1.41 0 00-1.416 1.403v1.152a1.41 1.41 0 001.416 1.403z" fill="#fff"/><path d="M268.715 452.584h30.94c.542 0 1.062.214 1.446.594.383.38.598.895.598 1.433v16.167a2.033 2.033 0 01-.895 1.679l-10.345 6.92a.682.682 0 01-1.044-.34.672.672 0 01.003-.416l2.093-6.848h-22.796a2.053 2.053 0 01-1.446-.594 2.014 2.014 0 01-.599-1.433v-15.183a2.019 2.019 0 01.616-1.402c.382-.37.895-.577 1.429-.577zm220.244-300.283h18.864c.321 0 .629.127.855.352.227.224.355.529.355.848v9.857a1.205 1.205 0 01-.545 1.02l-6.304 4.221a.424.424 0 01-.641-.456l1.21-4.125h-13.794c-.321 0-.629-.126-.856-.351a1.193 1.193 0 01-.354-.848v-9.283a1.193 1.193 0 01.738-1.14c.15-.063.31-.095.472-.095z" fill="#00D7CF"/><path d="M432.742 136.854H271.038a5.144 5.144 0 00-3.619 1.486 5.052 5.052 0 00-1.499 3.588v40.428a5.012 5.012 0 00.595 2.378 5.073 5.073 0 001.655 1.82l25.858 17.318a1.728 1.728 0 002.604-.872c.111-.335.115-.697.01-1.035l-5.131-16.91h141.231a5.145 5.145 0 003.612-1.49 5.052 5.052 0 001.495-3.583v-38.018a5.027 5.027 0 00-1.479-3.61 5.13 5.13 0 00-3.628-1.5z" fill="#A8DAD4"/><path d="M299.836 189.768l-5.735-4.737h-16.723l21.49 11.837.968-7.1z" fill="#E6B851" opacity=".22"/><path d="M418.319 149.759H283.138a2.173 2.173 0 01-1.531-.629 2.136 2.136 0 010-3.036 2.178 2.178 0 011.531-.629h135.181a2.18 2.18 0 011.532.629 2.141 2.141 0 01.469 2.34 2.148 2.148 0 01-1.172 1.161 2.18 2.18 0 01-.829.164zm0 10.901H283.138a2.178 2.178 0 01-1.531-.629 2.136 2.136 0 010-3.036 2.173 2.173 0 011.531-.629h135.181a2.18 2.18 0 011.532.629 2.148 2.148 0 01.634 1.518 2.141 2.141 0 01-1.337 1.983 2.18 2.18 0 01-.829.164zm-69.127 6.609h-66.683a1.53 1.53 0 00-1.537 1.523v1.26a1.53 1.53 0 001.537 1.523h66.683a1.53 1.53 0 001.537-1.523v-1.26a1.53 1.53 0 00-1.537-1.523z" fill="#fff"/><path d="M491.872 479.64c33.29-32.996 33.29-86.492 0-119.488-33.29-32.996-87.263-32.996-120.554 0-33.29 32.996-33.29 86.492 0 119.488 33.291 32.996 87.264 32.996 120.554 0z" fill="#A8DAD4"/><path d="M437.437 427.219c-5.227 11.897-14.52 21.659-21.538 12.197-5.275-7.052-1.149-16.635 1.295-21.072a94.415 94.415 0 0114.883-3.334h7.054s4.163 0 9.353.336a25.005 25.005 0 00-11.047 11.873z" fill="#E7B59D"/><path d="M423.595 415.01c0 .611-.315 10.074-.315 10.074l-5.844-9.762 6.159-.312z" fill="#E7B59D" opacity=".45"/><path d="M405.493 424.46c2.674-2.65 7.163-4.653 11.701-6.116-2.42 4.437-6.57 14.02-1.295 21.072 7.079 9.462 16.311-.3 21.538-12.197a25.01 25.01 0 0111.011-11.873c6.22.395 13.903 1.259 17.727 3.154 7.018 3.478 10.527 12.425 9.026 18.385-1.5 5.961 6.522 20.88-2.008 28.784-7.647 7.135-13.685 6.26-16.299 5.289a6.73 6.73 0 01-.75-.324c-2.009-.996 0 26.384 0 26.384s-50.651 2.975-53.651 0c-3.001-2.974-4.018-65.602 3-72.558z" fill="#00D7CF"/><path d="M436.203 364.386s-4.925-7.016-16.94-1.535-27.092 32.382-8.313 56.129c0 0 4.005-5.793 18.465-7.316 14.46-1.523 6.788-47.278 6.788-47.278z" fill="#3E6680"/><path d="M438.672 361.94l-13.238 5.182 9.232-6.405 4.006 1.223zm-29.355 22.715s-12.197 30.667 9.353 31.279c21.55.611-9.353-31.279-9.353-31.279z" fill="#A072AE" opacity=".52"/><path d="M440.547 397.416l.75 17.641-16.456 10.794a1.076 1.076 0 01-1.01.087 1.062 1.062 0 01-.636-.783l-2.71-14.391 16.045-19.345 4.017 5.997z" fill="#E7B59D"/><path d="M441.793 408.558s-2.964-2.531-4.973-4.522c0 0-5.227 14.944-20.921 13.109-10.551-1.2 10.358-12.066 10.358-12.066l10.503-7.867 6.05 4.389-1.017 6.957z" fill="#E7B59D" opacity=".45"/><path d="M406.969 396.108a82.361 82.361 0 013.497-15.195c.146-.647 1.646-7.471 4.502-8.887 2.855-1.415 15.548 2.483 15.548 3.982 0 1.199.641 9.594 4.925 13.192a6.843 6.843 0 004.102 1.679 8.734 8.734 0 013.687 1.092 8.639 8.639 0 012.847 2.566 85.219 85.219 0 01-9.039.312c-3.957 21.995-18.477 19.549-22.675 18.949-4.199-.6-8.011-9.091-7.394-17.69z" fill="#E7B59D"/><path d="M420.509 370.479c.932 0 1.077 19.297 19.155 22.464 18.077 3.166-6.534-18.494-6.534-18.494l-12.621-3.97z" fill="#E7B59D" opacity=".45"/><path d="M425.918 404.12s-7.647 2.279-11.144 1.511a.368.368 0 00-.341.117.366.366 0 00-.082.166.343.343 0 00.012.185 19.024 19.024 0 011.064 3.657c0 .852 7.865-.431 10.491-5.636z" fill="#EFFDFF"/><path d="M425.918 393.29a2.385 2.385 0 00-.436-1.559 2.072 2.072 0 00-1.56-.875 2.818 2.818 0 00-1.658.456 4.33 4.33 0 00-.641.503 4.144 4.144 0 00-.509.612 5.94 5.94 0 00.738-.264c.242-.084.484-.144.702-.24.42-.145.863-.214 1.307-.204.408.025.796.185 1.101.456.367.328.689.703.956 1.115zm-14.205-4.174c.161-.424.47-.778.871-.996a1.666 1.666 0 011.44-.108c.439.181.807.497 1.052.9.112.185.209.377.291.576.073.207.13.42.169.636a5.508 5.508 0 01-.46-.444c-.133-.156-.29-.276-.423-.42a3.115 3.115 0 00-.883-.6 1.474 1.474 0 00-.968 0c-.385.097-.752.25-1.089.456z" fill="#9A6253"/><path d="M420.509 371.703s5.24 17.99 20.159 19.525c14.919 1.535-12.1-21.972-12.1-21.972h-15.137l-4.55 11.286s8.857-2.735 11.628-8.839z" fill="#3E6680"/><path d="M420.485 369.256c.339 0 14.798-7.927 20.957-6.092 6.159 1.835 20.002 21.048 18.15 40.26-1.851 19.213-27.999 16.467-27.999 16.467s13.54-17.378 1.21-37.179l-9.232-8.551-3.086-4.905z" fill="#3E6680"/><path d="M446.223 383.759l-13.301 18.675 9.677 6.771 13.301-18.674-9.677-6.772z" fill="#43464A"/><path d="M455.987 408.474s0-13.349-2.178-15.064c-2.178-1.715-7.381-8.179-9.983-6.464-2.601 1.715-1.307 2.591-3.037 3.454-1.73.864-.871 2.147-2.178 3.01-1.307.864-3.037 4.306-2.166 4.306h3.896s6.05 11.19 8.688 10.794l.436 1.727h6.509l.013-1.763z" fill="#E7B59D"/><path d="M448.521 405.811s-.206 53.897 4.308 56.871c4.513 2.974 16.552-.492 14.048-10.434-2.505-9.942-11.544-46.221-11.544-46.221l-6.812-.216z" fill="#E7B59D"/><path d="M417.133 400.378l-2.77-1.535a37.744 37.744 0 002.94-4.39.252.252 0 01.121-.12.246.246 0 01.171-.017.251.251 0 01.192.257 19.534 19.534 0 01-.654 5.805z" fill="#E2A29D"/><path d="M427.842 390.627a6.483 6.483 0 00-1.685-2.721 6.553 6.553 0 00-2.792-1.595.245.245 0 01-.081-.04.26.26 0 01-.06-.068.213.213 0 01-.028-.085.228.228 0 01.2-.257.228.228 0 01.09.006 7.058 7.058 0 013.014 1.705 6.964 6.964 0 011.826 2.924.23.23 0 01-.157.287.234.234 0 01-.291-.156h-.036zm-11.556-6.812a5.642 5.642 0 00-2.732.384 5.594 5.594 0 00-2.216 1.632.198.198 0 01-.315-.24 6.042 6.042 0 012.387-1.747 6.1 6.1 0 012.937-.413c.254 0 .193.408-.061.384z" fill="#A072AE"/><path d="M419.771 369.256v1.367c0 .468 0 .936.085 1.403.095.928.244 1.849.448 2.759a22.736 22.736 0 001.899 5.229 22.341 22.341 0 003.134 4.533 24.602 24.602 0 004.126 3.598 24.669 24.669 0 01-3.823-3.862 21.503 21.503 0 01-2.735-4.617 21.162 21.162 0 01-1.464-5.121 21.59 21.59 0 01-.23-2.627v-1.978l.061-.708-1.501.024z" fill="#3E6680"/></svg>