<svg width="56" height="24" viewBox="0 0 56 24" fill="none" xmlns="http://www.w3.org/2000/svg"><path d="M49.725 23.275h-3.42V.43h3.42v8.95L51.48.428h3.656L52.83 9.595l2.43 13.68h-3.555l-1.244-9.897-.736 1.728v8.17zM39.179 19.43h-3.32v-6.008h2.618V9.586H35.86V3.995h3.32V.429h-6.93v22.846h6.93V19.43zm6.83 0h-3.174v-6.008h2.503V9.586h-2.503V3.995h3.174V.429h-6.626v22.846h6.626V19.43zM18.292.429l2.446 22.846h3.703l.933-14.689 1.213 14.69h3.186L32.025.428h-2.819l-.695 12.836L27.32.429h-3.657l-.953 12.634L21.541.43h-3.249zm-3.39 17.967c0 .87-.344 1.575-.768 1.575h-.596V3.995h.596c.424 0 .768.705.768 1.576v12.825zM15.663.429H10v14.433l-.004-.037v8.45h5.667c1.45 0 2.626-1.94 2.626-4.333V4.762c0-2.393-1.176-4.333-2.626-4.333zM3.902 15.018L4.77 5.26l.867 9.758H3.902zM7.57.429H2.396L0 23.289h3.093l.36-5.11h2.159l.36 5.11h3.827L7.57.43z" fill="#ABABAB"/></svg>