<svg width="56" height="23" viewBox="0 0 56 23" fill="none" xmlns="http://www.w3.org/2000/svg"><path d="M49.725 22.846h-3.42V0h3.42v8.95L51.48 0h3.656L52.83 9.166l2.43 13.68h-3.555L50.46 12.95l-.736 1.728v8.17zm-10.546-3.845h-3.32v-6.008h2.618V9.157H35.86V3.566h3.32V0h-6.93v22.846h6.93v-3.845zm6.83 0h-3.174v-6.008h2.503V9.157h-2.503V3.566h3.174V0h-6.626v22.846h6.626v-3.845zM18.292 0l2.446 22.846h3.703l.933-14.689 1.213 14.69h3.186L32.025 0h-2.819l-.695 12.836L27.32 0h-3.657l-.953 12.634L21.541 0h-3.249zm-3.39 17.967c0 .87-.344 1.576-.768 1.576h-.596V3.566h.596c.424 0 .768.705.768 1.576v12.825zM15.663 0H10v14.433l-.004-.037v8.45h5.667c1.45 0 2.626-1.94 2.626-4.334V4.334C18.289 1.94 17.113 0 15.663 0zM3.902 14.59l.868-9.76.867 9.758H3.902zM7.57 0H2.396L0 22.86h3.093l.36-5.11h2.159l.36 5.11h3.827L7.57 0z" fill="#ABABAB"/></svg>