<svg width="82" height="40" viewBox="0 0 82 40" fill="none" xmlns="http://www.w3.org/2000/svg"><path d="M81.56 1.532h-1.428v17.84h1.427v.696h-5.207v-.697h1.441V1.531h-3.371v19.163L63.26 2.521v16.85h1.44v.697h-9.34v-.697h2.202l-1.713-5.403h-5.846l-1.808 5.403h1.59v.697h-8.483v-.697h1.428V3.078l-5.547 17.198-5.86-16.697v15.792h1.564v.697h-5.235c-1.332 0-3.766-1.059-3.766-4.972v-1.657c0-2.228-1.087-3.162-3.249-3.162h-1.496v9.094h2.216v.697H9.15v-.697h2.202L9.64 13.968H3.793L2 19.37h1.59v.697H0v-.697h1.264L7.695 0l6.227 19.371h2.882V1.531h-1.427V.837h5.6c3.726 0 5.657 2.075 5.657 4.818 0 1.922-1.238 3.718-3.019 4.29 2.04.612 2.706 2.422 2.706 4.567v2.813c0 1.281.707 2.047 1.509 2.047h2.842V1.531h-1.428V.837h3.712l5.003 14.622L42.73.836h3.78v.696h-1.442v17.84h2.393L53.892 0l6.24 19.371h2.475V1.531H61.18V.837h3.997l8.592 13.995v-13.3h-1.427V.837h9.231v.696h-.013z" fill="#ABABAB"/><path d="M50.195 13.285h5.424L52.941 4.86l-2.746 8.425zm-29.571-3.69c2.27 0 3.386-2.312 3.386-3.83 0-2.743-1.469-4.22-3.644-4.22h-1.224v8.05h1.482zm-16.627 3.69h5.425L6.743 4.86l-2.746 8.425z" fill="#fff"/><path d="M61.397 31.362h.884l-2.352 6.1c-.476 1.225-1.02 1.67-1.863 1.67a2.46 2.46 0 01-1.196-.292l.286-.696c.271.153.516.223.87.223.503 0 .815-.28 1.142-1.115l-2.543-5.89h.911l2.04 4.93m-7.519-.585V32.14h-.775v-.78h.775v-1.78h.83v1.783h1.767v.78h-1.768v3.453c0 .724.381.989.939.989.285 0 .516-.056.815-.209v.752c-.285.167-.611.25-1.006.25-.897 0-1.577-.459-1.577-1.67zm-8.117-.669v-3.676h.83v3.453c0 1.1.557 1.783 1.55 1.783.952 0 1.672-.738 1.672-1.852v-3.384h.816v5.904h-.816v-1.03c-.38.64-.952 1.156-1.917 1.156-1.346.014-2.134-.947-2.134-2.354zm-7.667.529v-.028c0-1.239.979-1.907 2.393-1.907.707 0 1.223.097 1.713.25v-.209c0-1.058-.612-1.615-1.659-1.615-.653 0-1.183.181-1.7.432l-.244-.725c.612-.292 1.223-.487 2.04-.487.788 0 1.4.223 1.807.655.381.404.571.974.571 1.726v3.621h-.802v-.891c-.394.53-1.033 1.017-2.026 1.017-1.046 0-2.093-.627-2.093-1.839zm4.12-.46v-.57a5.56 5.56 0 00-1.646-.25c-1.047 0-1.631.473-1.631 1.225v.027c0 .739.652 1.17 1.4 1.17 1.033 0 1.876-.668 1.876-1.601zm-11.516-.765v-.028c0-1.699 1.128-3.078 2.678-3.078 1.659 0 2.61 1.393 2.61 3.12l-.013.278H29.72c.122 1.282.979 2.006 1.971 2.006.762 0 1.305-.334 1.754-.836l.517.487c-.558.669-1.238 1.115-2.298 1.115-1.536.014-2.787-1.24-2.787-3.064zm4.446-.348c-.082-1.073-.667-2.006-1.781-2.006-.98 0-1.714.864-1.822 2.006h3.603zm-11.516 2.158v1.128h-.83v-8.34h.83v3.62c.449-.71 1.115-1.309 2.135-1.309 1.332 0 2.664 1.114 2.664 3.064v.028c0 1.936-1.318 3.078-2.664 3.078-1.034-.014-1.713-.613-2.135-1.268zm3.943-1.81v-.028c0-1.393-.911-2.284-1.971-2.284-1.034 0-2.026.92-2.026 2.27v.028c0 1.379.979 2.284 2.026 2.284 1.087 0 1.97-.85 1.97-2.27z" fill="#ABABAB"/></svg>