<svg width="29" height="27" viewBox="0 0 29 27" fill="none" xmlns="http://www.w3.org/2000/svg"><path d="M14.499 2.529c-.452-1.29-1.554-2.684-3.616-2.493-2.628.327-3.447 3.205-3.05 4.922-1.046-.81-2.826-1.166-4.379.355-2.005 2.298-.933 5.405.17 6.15-1.215-.128-3.135.81-3.56 3.266-.452 3.047 1.58 4.824 3.56 4.824h21.949c2.289 0 3.559-2.263 3.416-4.398-.224-2.785-2.455-3.854-3.671-3.625 1.016-.648 2.374-3.693.31-6.087-1.639-1.781-3.728-1.133-4.462-.356.396-1.488-.253-4.564-2.91-5.05a4.184 4.184 0 00-.53-.037c-2.028 0-2.94 1.695-3.227 2.529z" fill="#fff"/><path d="M3.82 5.798c-1.159 1.199-1.58 3.916.508 5.504l8.334 6.535-4.04-10.581C7.773 4.759 5.457 4.214 3.82 5.798zM10.993.653C9.64.685 7.605 2.53 8.51 5.344l4.18 11.266 1.468-11.85c.34-2.944-1.61-4.303-3.165-4.107zm3.817 3.656h.79s.422 0 .48.227c-.311.29-1.158.327-1.045 1.877l1.328 10.196 4.15-11.296C21.364 2.791 19.582.685 18 .62a2.73 2.73 0 00-.225-.01c-1.419 0-3.045 1.178-2.965 3.699zm5.536 3.043l-3.925 10.454 8.331-6.57c1.92-1.556 1.61-4.046.536-5.276-.451-.58-1.279-1.027-2.155-1.027-1.036 0-2.144.628-2.787 2.419zm3.474 5.372l-7.825 6.247h9.634c1.976 0 3.247-2.33 2.682-4.467-.378-1.343-1.497-2.398-2.796-2.4-.546 0-1.126.189-1.696.62zM3.595 18.97h9.492L5.26 12.725c-1.808-1.328-3.841-.55-4.575 1.653-.622 2.522.931 4.594 2.91 4.594zM.03 23.492c0 1.064.761 3 3.667 3 2.678 0 3.524-1.405 3.524-2.049H5.148s-.099.851-1.269.851-1.487-1.117-1.487-1.762c0-.644.317-1.7 1.487-1.7 1.17 0 1.269.74 1.269.74H7.22c0-.644-.62-2.03-3.524-2.03-2.906 0-3.666 2.063-3.666 2.95zm21.749 0c0 1.064.761 3 3.666 3 2.678 0 3.524-1.405 3.524-2.049h-2.072s-.099.851-1.269.851-1.487-1.117-1.487-1.762c0-.644.317-1.7 1.487-1.7 1.17 0 1.27.74 1.27.74h2.072c0-.644-.62-2.03-3.525-2.03s-3.666 2.063-3.666 2.95zm-8.89-2.85v3.602l-2.413-3.602H7.76v5.704h1.86v-3.642l2.372 3.642h2.757v-5.704H12.89zm5.964 4.342v.007h-1.55v-1.047h1.55v.003c.331 0 .599.233.599.52 0 .285-.268.517-.599.517zm-1.537-3.232h1.495v.002c.253 0 .458.19.458.425s-.205.424-.458.424v.002h-1.495v-.853zm3.06 1.562c.339 0 1.047-.45 1.047-1.32 0-1.241-2.02-1.352-2.33-1.352H15.37v5.704h3.723c1.79 0 2.51-.646 2.51-1.726s-1.227-1.306-1.227-1.306z" fill="#ABABAB"/></svg>