<svg width="77" height="24" viewBox="0 0 77 24" fill="none" xmlns="http://www.w3.org/2000/svg"><path d="M19.131 23.227a5.762 5.762 0 01-3.412-1.874c-.748-.841-1.233-1.765-1.59-3.032-.559-1.978-.559-4.52-.001-6.457.54-1.878 1.757-3.512 3.247-4.36 2.063-1.175 4.965-1.102 6.876.174 1.72 1.149 2.76 3.19 3.05 5.977.089.851.031 2.65-.108 3.391-.57 3.038-2.231 5.16-4.664 5.96a7.037 7.037 0 01-.904.224c-.497.078-2.013.076-2.494-.003zm2.901-.968c.982-.26 1.293-1.825 1.993-2.419 1.703-1.442-.086-3.19 0-5.99.085-2.76.615-2.905-.803-4.422-1.15-1.231 1.211-1.304-.664-1.304-1.988 0-2.041-1.342-3.273.065-1.32 1.506-1.361 5.604-1.361 8.07 0 2.56.79 4.678 2.012 6.126.674.798 1.1-.443 2.04-.063.334.134-.03-.03.859.157.076.016-2.814.673-2.265.66.741-.016 1.112-.787 1.462-.88zm-1.633.968c-.91-.468-2.017-3.018-2.34-5.27-.205-1.427-.224-4.601-.038-6.156.262-2.184.602-3.775 1.465-4.21.59-.3 3.037-.24 3.563.3 1.17 1.199 2.363 4.503 2.108 8.589-.183 2.931-.944 5.227-1.99 5.78-.38.2-2.402 1.156-2.768.967zm.74-1.22c.393-.132.876-.647 1.134-1.206.533-1.156.77-2.864.776-5.576.008-3.4-.462-5.563-1.453-6.696-.416-.476-.712-.623-1.244-.622-1.181.002-1.93 1.401-2.227 4.156-.136 1.267-.137 4.284-.001 5.392.42 3.427 1.503 5.062 3.016 4.552zm21.767 1.22c-.549-.064-2.227-.381-2.813-.532l-.406-.105.032-2.458c.076-5.917.085-9.147.036-12.289-.048-3.077-.062-3.403-.167-3.858-.132-.577-.324-.98-.554-1.165-.089-.072-.332-.175-.54-.227-.688-.176-.651-.148-.67-.505-.01-.205.01-.341.056-.383.062-.056 5.716-1.28 5.896-1.276.051.001.059.821.032 3.645-.019 2.004-.021 3.643-.005 3.643s.222-.101.459-.225c.713-.374 1.37-.536 2.325-.574.636-.025.93-.01 1.257.067 2.132.5 3.71 2.482 4.262 5.35.144.748.197 2.607.102 3.539a12.977 12.977 0 01-.555 2.558c-.913 2.619-2.87 4.328-5.465 4.772-.599.102-2.476.115-3.282.022zm4.348-3.355c.363-1.663.113-.299.617-2.262.456-3.894-.057-5.094-.162-6.156-1.015-2.67-1.385-2.17-1.984-2.752-2.796-.138-1.184.58-2.63.24-1.084-.257 2.278-1.856 1.218-1.292-.265.14-.56 1.23-.604 1.23-.071 0-3.898 6.15-3.88 2.95l-.055-5.213v-2.31c-.122.029-.02-1.135-.83-1.617-1.273-.352-.93-.394-.997-.376-.101.027-.015-.463-.004-.266.013.22.028.24.233.29.701.175.826.238 1.087.544.32.374.464.853.559 1.851.075.796 4.081 13.021 4.01 15.045l-.039 3.426V22.01c2.162.524 2.587-.645 3.46-2.14zm-3.195 2.249c-.112-.014-.231-.063-.266-.11-.095-.13-2.615-8.533-2.552-11.028L43.71 8.88l.443-.145c.653-.214 1.356-.18 1.855.087 1.002.539 1.66 1.87 2.001 4.047.111.709.095 3.172-.027 4.049-.254 1.83-.717 3.243-1.362 4.156-.313.442-.831.86-1.237.997-.262.089-.823.11-1.323.05zm1.066-.144c.402-.087.714-.268 1.05-.61.84-.858 1.473-2.63 1.721-4.823.102-.894.088-2.93-.024-3.676-.304-2.017-.956-3.343-1.908-3.877-.395-.221-.455-.237-.923-.237-.335 0-.623.04-.868.123l-.367.122-.027 2.296c-.035 2.941.05 10.305.12 10.516.045.135.095.163.32.183.527.047.614.046.906-.017zm13.696 1.218c-2.746-.562-4.71-2.772-5.352-6.023-.082-.418-.119-.885-.14-1.79-.032-1.432.07-2.32.396-3.425.625-2.12 1.746-3.623 3.373-4.523 1.718-.95 4.067-1.013 5.587-.148 1.712.973 2.72 2.917 2.975 5.74.034.38.054.832.044 1.005l-.018.314-4.097.016-4.096.016.015.55c.037 1.272.278 2.397.724 3.376.202.444.364.687.755 1.136.886 1.014 1.767 1.407 3.156 1.407 1.007 0 1.732-.228 2.49-.784.212-.156.427-.283.477-.283.116 0 .382.389.382.558 0 .277-.794 1.17-1.569 1.763-.634.487-1.64.927-2.513 1.1-.611.122-1.984.119-2.589-.005zm6.29-2.99c1.282-.236-1.282 1.935-.374.96.497-.535.662-.793.593-.928-.428.329-.566.629-1.037.957-.75.523-.737-.322-1.619-.22a4.486 4.486 0 01-2.856-.587c-.582-.34-1.28-1.12-1.628-1.823-.476-.959-.734-2.08-.811-3.519-.033-.604-.026-.755.037-.8.042-.03 1.888-.055 4.132-.056l.035-1.412-.258-2.36c0-.413-.21-1.947-.734-2.318-3.407-1.545-2.078-.948-.694-.948 1.3.283.722.567-.083.567-1.495.375-1.635 1.847-2.26 3.643-.148 2.447-.147 2.406-.132 4.273.058.503.291 1.665.726 2.733 1.329 2.072 1.615 1.529 1.716 2.047 2.409.874 2.99.466 5.466-.177.695.14-.906.094-.22-.032zm-7.695-5.96c-.042-.076.036-2.305.138-2.884.247-1.396.641-2.404 1.184-3.025.292-.334.425-.438.663-.518.164-.055.35-.1.413-.1.254 0 .554.148.777.381.599.626.941 1.971 1.01 3.962l-.053 2.128h-.6c-1.155.074-3.502.112-3.532.056zm3.144-1.29l.963-.038-.035-.776c-.122-2.738-.713-4.234-1.67-4.233-1.04.002-1.872 1.52-2.218 4.05-.043.31-.078.68-.078.82l-.002.253 1.038-.019c.571-.01 1.472-.036 2.002-.057zm9.333 10.301c-.986-.12-2.556-.51-3.079-.765l-.255-.124-.035-1.436c-.019-.789-.04-1.844-.049-2.345l-.014-.91.153-.083c.084-.046.254-.089.377-.095l.225-.012.19.534c.747 2.083 1.621 3.206 2.764 3.548.436.13 1.253.131 1.576.002.903-.362 1.399-1.139 1.403-2.2.005-1.256-.603-1.86-2.902-2.879-1.425-.63-1.921-.956-2.513-1.643-.638-.741-.945-1.585-1.002-2.76-.07-1.42.322-2.618 1.19-3.638.873-1.027 2.007-1.583 3.552-1.743 1.36-.141 3.448.186 4.542.712l.2.096.035 1.28c.02.703.04 1.646.045 2.095l.01.816-.269.113c-.424.179-.451.157-.687-.552-.66-1.987-1.428-2.927-2.625-3.214-.729-.175-1.337.013-1.78.55-.345.419-.48.791-.513 1.416-.035.677.072 1.042.436 1.495.449.558 1.185 1.039 2.65 1.734 1.796.852 2.653 1.574 3.119 2.63.302.687.388 1.235.357 2.29-.023.791-.045.954-.204 1.485-.517 1.733-1.685 2.874-3.489 3.409-.611.18-.698.19-1.913.205-.7.009-1.373.004-1.495-.011zm2.63-.176c2.351-.405 3.87-1.837 4.268-4.023.192-1.056.103-2.23-.23-3.016-.467-1.1-1.255-1.763-3.208-2.7-1.45-.696-2.32-1.286-2.676-1.816-.295-.437-.39-.774-.386-1.358.006-.88.3-1.554.861-1.975.47-.352 1.06-.438 1.745-.254.829.222 1.452.799 2.015 1.866.18.34.547 1.293.727 1.881.028.092.06.095.253.03a.975.975 0 00.26-.117c.02-.023-.65.77-.706-.487l-.22-.408-.314-.899c-.339-.163-.438-.714-.856-1.2-.438-.092-.844-.667-1.875-.666-1.23.001-.959.598-1.466.755-.526 1.474-.265 1.099-.269 2.418.38.66.822.814 1.293 1.349 1.383.597 3.542 1.604 4.298 2.698.546.663 1.071 1.513.845 3.115 0 2.064-.687 2.387-1.075 3.14-.36.378-1.384 1.252-1.854 1.252-1.523.574-1.06.508-1.716.508-1.107.188 1.018-3.139.857-2.753-.42 1.007.97 2.782-1.798 2.741-5.564-.082-3.118-2.599-3.977-4.971-.224-.619.777 1.943.436 2.09l-.348-2.09.346 1.967c.034 1.964.305 1.436.387 1.508.246.214 1.303.102 2.408.251.858.117 1.326 1.276 1.974 1.164zm-72.45-.202c-.045-.02-.069-.177-.069-.467 0-.52-.029-.497.858-.684.68-.143.924-.29 1.225-.737.583-.867.708-2.536.71-9.41.001-6.454-.109-7.811-.711-8.809-.267-.443-.718-.683-1.473-.785l-.58-.08-.017-.514L0 .877.182.84c.1-.02 3.62-.029 7.82-.02l7.638.02.035.25c.02.14.053 1.557.072 3.151l.036 2.899-.393.136c-.593.204-.59.207-.856-.594-.655-1.967-1.406-3.1-2.434-3.672-.709-.395-1.037-.443-3.038-.443H7.32l-.03.33c-.057.618-.146 4.597-.145 6.47v1.87l.513-.004c.281-.002.836-.025 1.234-.052.597-.04.774-.077 1.024-.208.613-.322 1.03-1.032 1.287-2.187l.132-.596.451-.019.452-.018v7.548l-.452-.019-.452-.018-.128-.596c-.241-1.122-.705-1.925-1.278-2.212-.265-.133-.92-.209-2.187-.253l-.596-.02V14c0 1.545.075 3.635.171 4.77.134 1.581.49 2.455 1.13 2.771.122.06.508.159.858.218.35.06.68.134.734.165.135.08.143.899.01.957-.106.045-9.875.042-9.974-.004zm9.698-.022c0-.19-1.532-.032-1.55-.032-.264 0-.938.02-1.135-.092-.703-.402-.803.14-.803-.63-.09-1.446.685-9.56.742-9.625.053-.06 2.393.046 2.667.12.756.206 1.34 1.05 1.631 2.363l.129.579.338.018h-.338l-.408-1.37-.527-1.037-.387-.294c-.336 0 1.278-4.564 1.278-4.432 0 .238-.802 3.957-1 4.432.525 1.142-.357-.399-.914-.253-.137.036-1.815-.16-2.469-.126-.921.049-4.588-9.35-4.623-9.41-.064-.11-.353-.117-.28-.5l-.461-.41L8.968.9h2.048l.727 1.764c1.095.445 1.883 1.355 2.542 2.933.148.354.338.87.421 1.147.084.276.159.511.165.522.007.01.189-.041.404-.116l-.384.19-.184-.325c-.231-1.09-1.2-2.884-1.56-3.257L12.1 2.91 7.86 1.497l-6.2.66-1.217-.25-.3-.127.498.071c.665.094.908.177 1.176.397.406.333.85.739 1.006 1.51.244 1.2 4.303 4.174 4.263 9.235-.043 5.347.466 8.721.166 9.8-.106.221-5.37-.11-6.13.032-.209.039-.277-.038-.43 0H.138l-.023-.093h9.909l-.253.124zm17.59.01c-.05-.036-.066-.18-.054-.486l.016-.434.194-.047c.107-.025.335-.076.509-.113.535-.114.844-.444 1.017-1.09.141-.527.203-2.213.207-5.597.004-4.14-.072-5.117-.441-5.671-.2-.3-.344-.386-.83-.491a35.26 35.26 0 01-.559-.125c-.11-.026-.125-.067-.125-.375 0-.299.017-.353.125-.403.166-.078 5.65-1.322 5.825-1.322h.137l-.027.927c-.015.51-.039 1.252-.053 1.649l-.025.722.198-.406c.636-1.302 1.35-2.11 2.298-2.603.52-.27.868-.352 1.511-.352.763 0 1.526.283 1.526.566 0 .19-1.344 4.22-1.418 4.252-.037.015-.299-.098-.584-.253-.593-.324-1.15-.482-1.69-.48-.674.001-1.425.283-1.722.644-.127.155-.128.164-.16 2.472-.03 2.286.037 5.074.15 6.195.096.955.32 1.426.782 1.645.154.073 1.129.224 1.447.225.024 0 .037.219.028.487l-.016.487-4.097.015c-2.253.008-4.129-.009-4.168-.037zm7.902-.073h-1.218c-.99-.095-1.955-.015-2.215-.44-.376-.615-.608-.047-.608-4.648l-.803-8.589 2.812 1.177c.173-.21.542-.599.924-.69.778-.183 1.986 1.049 2.763 1.481.223.124.415.215.426.202.023-.026-.128.235-.089.074.018-.073-.2-.032-.415-.13-.46-.208-.62-.752-1.135-.718-1.374.09-1.524-1.322-2.403.502-.145.303-.032-.722-.07-.721-.057 0-1.044 2.105-1.014.721l1.018-4.184.04.446c-.073.02.126 3.017-.837 3.236-2.742.624-4.918-2.365-4.984-2.32-.027.02 4.016 1.196 4.016 1.315 0 .237-2.09-.994-1.467-.88.856.156 1.699 3.169 1.826 4.554.167 1.807.36 7.08.167 8.042-.1.491 1.529 1.402 1.273 1.57-.095.063-2.304-.06-2.574 0h-3.239l-.057-.061h8.144l-.281.061z" fill="#ABABAB"/></svg>