<svg width="17760" height="4592" viewBox="0 0 17760 4592" fill="none" xmlns="http://www.w3.org/2000/svg"><g clip-path="url(#clip0)" fill-rule="evenodd" clip-rule="evenodd" fill="#ABABAB"><path d="M6195.68 4571.95v-847.21h546.38l80.21 5.01 40.1 10.03 40.1 10.02 35.09 15.04 30.08 20.05 25.06 25.07 15.04 15.04 25.06 50.13 10.03 35.09 5.01 35.09v65.17l-5.01 30.08-15.04 50.13-15.04 30.08-15.04 15.04-10.02 15.04-15.04 15.04-30.08 20.05-25.06 25.07-35.09 15.04-30.08 10.02-90.23 10.03h-396v330.86h-170.43v-5.01zm165.42-471.23h390.99l35.09-5.01 35.09-10.03 15.04-5.01 15.03-10.03 15.04-15.04 10.03-15.04 5.01-15.04 5.01-15.04v-45.12l-5.01-15.03-10.03-30.08-10.02-15.04-15.04-10.03-25.06-15.04-25.07-10.02-45.11-5.02H6361.1v235.62zm887.25 471.23l416.05-847.21h190.48l411.04 847.21h-175.44l-90.23-195.51h-491.24l-85.22 195.51h-175.44zm330.83-335.88h355.91l-175.45-375.98-180.46 375.98zm1097.79 335.88v-847.21h571.45l80.2 10.02 40.1 10.03 35.09 15.04 35.09 15.04 30.08 20.05 15.03 15.04 10.03 15.04 15.04 15.04 10.02 15.04 15.04 30.08 10.03 30.07 5.01 30.08v60.16l-5.01 30.08-20.05 25.06-10.03 25.07-15.04 30.08-20.05 25.06-20.05 25.07-30.08 20.05-25.06 15.04-35.09 10.03-30.07 10.02h-35.09l260.66 345.91H9358.7l-245.63-335.88H8847.4v335.88h-170.43v5.01zm165.42-471.23h320.81l85.22-5.01 30.07-5.02 35.09-10.02 15.04-5.02 15.04-10.02 10.02-10.03 10.03-15.04 10.02-25.06 5.02-15.04v-40.11l-5.02-15.04-5.01-15.04-10.02-15.04-10.03-15.04-15.04-10.02-25.06-15.04-30.08-10.03-55.14-5.01H8847.4v240.63h-5.01zm1208.11-375.98h170.4v847.21h-170.4v-847.21zm1343.4 255.66l-15.1-35.09-15-15.04-5-10.03-20.1-15.04-10-15.04-35.1-15.04-35.1-15.04-40.1-10.02-75.2-10.03h-45.1l-75.2 5.01-70.1 15.04-30.1 15.04-25.1 15.04-10 10.03-10 10.02v15.04l-5.1 15.04v25.07l5.1 15.04 10 10.02 20 10.03 30.1 15.04 30.1 10.03 95.2 15.03 200.5 30.08 45.2 10.03 50.1 10.03 40.1 15.03 45.1 20.06 30.1 15.04 25 25.06 20.1 20.05 20 30.08 15.1 25.07v25.06l10 25.07v55.14l-10 35.1-5 25.06-15.1 30.08-15 25.06-25.1 25.07-25 20.05-25.1 20.06-45.1 20.05-45.1 20.05-55.2 10.03-45.1 10.02-110.3 5.02h-70.1l-75.2-10.03-75.2-20.05-75.2-25.07-25.1-15.04-25-15.04-20.1-20.05-25.1-20.05-20-20.05-15-25.07-20.1-25.07-10-25.06-10-25.07 155.3-50.13 15.1 20.05 10 25.07 15 15.04 15.1 20.05 25.1 15.04 15 10.03 20 10.02 25.1 10.03 45.1 15.04 45.1 5.01 90.3 5.02 80.2-5.02 40.1-5.01 40.1-15.04 35.1-15.04 25-20.05 10-10.03 10.1-15.04 5-25.06v-5.02l-5-30.07-5-10.03-10.1-10.03-25-15.04-25.1-15.04-60.1-15.03-55.2-10.03-205.5-30.08-45.1-5.01-50.1-15.04-50.2-15.04-45.1-20.05-30.1-20.06-25-25.06-20.1-25.07-10-15.04-10-15.04-5-20.05-10.1-40.1v-65.17l10.1-20.06v-20.05l10-20.05 15-20.05 5-15.04 20.1-15.04 30.1-25.07 30-20.05 35.1-20.05 40.1-10.03 100.3-20.05 100.2-5.01h65.2l65.2 10.02 65.1 10.03 65.2 20.05 50.1 20.05 15.1 15.04 25 15.04 15.1 15.04 20 15.04 15.1 20.05 15 20.06 15 30.07 20.1 35.1-160.4 50.13zm3919.9-1238.24l5 60.16 10 30.08 5 30.08 15.1 55.14 15 30.08 10 25.06 5 20.06 15.1 15.04 20 30.07 25.1 30.08 35.1 25.07 40.1 20.05 45.1 10.03 25.1 10.02 10 5.02 5 5.01-857.2-5.01 20.1-5.02 25.1-10.02 25-10.03 25.1-15.04 25-15.04 25.1-25.06 10-15.04 15.1-35.09 10-15.04 5-15.04 5-20.06 5-50.13 5-50.13v-45.12l-5-50.13-225.5-1659.33-10.1-55.15v-20.05l-5-5.01-5-5.02h-10l-5 5.02-20.1 50.13-20 45.12-711.8 1694.42-5 10.03-5.1 10.03-10 10.02h-10l-10-10.02-15.1-15.04-5-10.03-681.7-1498.92-105.3-215.56-10-15.04-5-5.01h-10l-5.1 5.01-5 10.03-5 25.06v65.17l-175.4 1679.39-5 35.09v35.1l5 35.09 10 35.09 15 40.1 15.1 15.04 10 15.04 15 15.04 15.1 10.03 35.1 20.05 50.1 15.04 45.1 10.03 15 5.01 10.1 5.01h-611.6l10-5.01 35.1-5.01 35.1-15.04 40.1-20.06 15.1-15.04 20-15.03 15.1-15.04 15-20.06 10-20.05 10-15.04 20.1-40.1 10-35.09 10-35.1 5.1-40.1 200.5-1859.861-5-25.065v-25.066l-5.1-55.144-25-75.196-30.1-45.118-15-25.066-20.1-20.052-15-20.053-20.1-15.039-30.1-15.039-25-10.027-20.1-10.026-45.1-15.039-5-5.013-5-5.013h636.6l10 20.052 676.7 1473.855 20.1 40.1 10 35.09 10 10.03 10.1-5.01 10-25.07 661.7-1554.06 611.5 5.013-15 10.026-55.2 15.039-30 15.04-25.1 15.039-25.1 20.052-25 25.066-20.1 25.065-15 25.066-10 30.078-10.1 30.079-10 30.079v75.196l225.6 1799.702zM1323.35 3058l105.27-5.02 110.28-20.05 40.1-10.03 35.09-15.04 40.1-15.04 35.09-20.05 30.08-25.06 30.07-25.07 35.09-30.08 25.06-30.08 15.04-25.06 25.07-45.12 30.07-50.13 5.02-30.08 10.02-25.06 10.03-25.07 5.01-40.1 15.04-15.04-100.26 541.41L0 3143.22h15.038l80.203-20.05 45.115-10.03 35.089-15.04 40.101-20.05 40.102-20.05 20.051-15.04 20.05-20.06 35.089-45.11 5.013-25.07 10.025-25.07 10.026-50.13V967.532l-15.038-70.183-15.038-50.131-15.039-20.052-10.025-20.053-20.051-20.052-35.089-35.092-20.05-15.039-40.102-25.066-45.114-20.052-85.216-25.066-15.038-10.026H1067.71h-5.02l-20.05 10.026-60.151 15.04-65.165 15.039-40.101 20.052-45.115 25.066-35.089 30.078-15.038 15.04-20.05 20.052-5.013 20.053-15.038 20.052-10.026 20.052-10.025 20.053v25.065l-10.025 45.118V2942.69l5.012 15.04v15.04l5.013 15.04 5.013 15.04 10.025 15.04 15.038 10.03 10.026 10.02 20.05 5.02 35.089 10.02 35.089 5.02h471.191zM16491.8 1899.97v1087.84l5 15.04 5.1 20.05v10.03l5 10.03 25 15.04 40.1 5.01h701.8l65.2-5.01 70.1-15.04 70.2-20.06 65.2-25.06 35.1-20.05 35.1-25.07 30-25.06 25.1-30.08 20.1-35.09 20-35.1 15-35.09 5.1-20.05 5-20.05 15-80.21 5-15.04v-10.03l5-5.01-15 506.32-1889.8-5.01 20.1-5.01 40.1-5.02 35.1-10.02 30-15.04 30.1-20.06 30.1-25.06 15-20.05 10-15.04 15.1-20.05 5-15.04 20-40.11 10.1-45.12 10-50.13 5-45.12V937.454l-5-25.065-5-30.079-5-25.065-5-25.066-10.1-25.065-15-35.092-10-20.052-15.1-15.04-10-15.039-15-15.039-30.1-20.053-25.1-15.039-25-10.026-70.2-20.053-15.1-5.013 1874.8-5.013 10 496.295v-10.02l-5-25.07v-30.08l-10-35.09-5-30.078-10.1-30.079-15-30.079-15-30.078-20.1-30.079-20-25.065-25.1-25.066-25.1-20.052-30-20.053-25.1-15.039-70.2-25.065-70.2-20.053-70.1-15.039-70.2-5.013h-626.6l-55.1 5.013-35.1 5.013-20.1 5.013-10 15.039-20 30.079v20.052l-5.1 20.053v20.052l-5 20.053v746.951l5 25.07v10.02l5.1 15.04 5 10.03 10 5.01 30.1 10.03h716.8l40.1-5.02 35.1-10.02 35.1-15.04 20-10.03 15-15.04 20.1-15.04 10-15.04 15.1-15.03 10-20.06 10-20.05 10-20.05 15.1-40.11 5-45.11 5-20.06 5-5.01v15.04l-5 631.65v-10.03l-10-25.06-5-60.16-20.1-55.14-10-20.06-10-20.05-10.1-15.04-10-15.04-20-15.04-10.1-15.04-35.1-20.05-30-10.02-35.1-5.02-65.2-5.01h-641.6l-40.1 5.01-20.1 10.03-15 10.03-10 5.01-5 10.02-5 10.03v10.03l-5.1 25.06-5 25.07v35.09zM5218.26 2887.55l5.01 40.1 5.01 35.09 15.04 35.1 15.04 35.09 15.04 20.05 15.03 20.05 15.04 15.04 15.04 10.03 20.05 15.04 20.05 10.02 45.12 10.03 60.15 5.01 15.04 5.02 5.01 5.01-656.66-5.01 10.02-5.02 20.05-5.01 45.12-10.03 40.1-15.04 25.06-15.04 30.08-15.03 20.05-15.04 15.04-20.06 20.05-25.06 10.02-25.07 10.03-25.06 5.01-25.07 10.03-75.19V947.478l-5.02-20.053V902.36l-5.01-25.066-10.02-25.065-5.02-25.066-10.02-20.052-10.03-25.065-15.04-20.053-15.03-20.052-15.04-20.053-20.05-15.039-20.05-15.039-25.07-15.04-45.11-20.052-70.18-25.065-15.04-5.014v-5.013h656.67L6832.35 2326.08V942.465l-5.02-25.066v-45.118l-5.01-25.065-5.01-25.066-10.03-20.052-15.04-45.118-20.05-25.065-10.02-20.053-25.07-20.052-15.03-15.04-25.07-15.039-25.06-15.039-25.06-10.026-25.07-5.013-45.11-10.027-10.03-5.013h686.74l-20.05 5.013-60.15 20.053-30.08 15.039-30.07 15.039-25.07 20.053-25.06 20.052-20.05 20.053-20.05 25.065-15.04 30.079-15.04 25.065-10.02 30.079-5.02 30.078-5.01 35.092-5.01 35.092-5.01 2140.595 5.01 25.06v35.1l-10.03 20.05v5.01h-10.02l-10.03-5.01-20.05-15.04-25.06-30.08-1654.19-2095.48-5.01-5.01h-10.03v15.04l-5.01 15.04v1839.81zm-897.35-55.14l35.09 75.19 15.04 35.09 20.05 35.1 20.05 35.09 20.05 30.08 25.07 30.07 30.07 25.07 15.04 15.04 20.05 10.03 20.05 10.02 25.07 5.01h15.04l10.02 5.02h-832.11l10.03-5.02 40.1-10.02 50.13-15.04 20.05-10.03 30.07-25.06 15.04-15.04 10.03-15.04 10.02-15.04 15.04-45.12 5.01-15.04v-35.09l-10.02-65.17-10.03-30.08-305.77-741.94-10.03-20.05-10.02-15.04-10.03-5.01-10.02-10.03-10.03-5.01-20.05-5.01h-681.73l-30.07 10.02-15.04 10.03-10.03 10.02-20.05 35.1-320.81 782.04-5.01 15.04-10.03 25.06-10.02 50.14v25.06l5.01 25.07 5.01 20.05 15.04 20.05 15.04 20.05 15.03 10.03 15.04 10.03 35.09 15.04 50.13 15.03 50.13 5.02 30.07 5.01 10.03 5.01h-596.51l15.03-5.01 35.09-10.03 35.09-15.03 30.08-20.06 30.07-25.06 35.09-40.11 30.08-45.12 25.06-45.11 15.04-25.07 10.03-25.06 932.36-2250.886 5.01-10.026 5.01-15.039 10.03-10.027 15.04-5.013h10.02l20.05 5.013 15.04 10.027 15.04 15.039 917.32 2195.742zm-1333.37-907.38h551.39l15.04-5.01v-5.01l5.01-5.01v-10.03l-5.01-15.04-20.05-50.13-225.57-636.66-15.04-40.11-10.02-10.03-10.03-10.02-15.04-5.02-15.04 5.02-10.02 5.01-5.01 10.03-10.03 20.05-15.04 20.05-250.63 631.65-10.03 25.07-10.02 25.06v30.08l5.01 10.03 10.02 5.01 10.03 5.01h30.08zM12140.7 501.31l-1012.5-310.812-1022.6 310.812L11128.2 0l1012.5 501.31zm-1007.5 75.197l130.3 5.013 125.3 15.039 125.3 30.079 60.2 20.052 55.1 25.066 60.2 25.065 55.1 30.079 55.2 30.078 55.1 35.092 50.1 35.092 50.2 40.105 50.1 40.104 45.1 45.118 50.1 45.118 40.1 50.133 40.1 50.13 40.1 55.14 35.1 55.15 30.1 55.14 30.1 55.15 20 60.15 25.1 60.16 15 60.16 15.1 60.15 25 125.33 10.1 130.34v125.33l-5.1 65.17-15 125.33-15 60.16-10.1 65.17-20 60.15-25.1 60.16-50.1 115.3-35.1 55.15-35.1 55.14-35.1 50.13-40.1 50.13-45.1 45.12-45.1 45.12-50.1 45.12-50.2 40.1-50.1 40.1-50.1 35.1-55.1 30.08-55.2 30.07-55.1 25.07-60.2 25.06-55.1 20.06-60.2 20.05-125.3 25.07-125.3 15.03h-255.7l-125.3-15.03-120.3-25.07-60.1-20.05-60.2-20.06-55.1-25.06-60.2-25.07-50.1-30.07-55.1-35.1-50.2-35.09-50.1-40.1-50.1-40.11-50.1-45.12-45.2-45.11-40.1-45.12-40.1-50.13-40.1-50.13-35.1-55.15-30.03-55.14-30.08-55.15-25.06-55.14-20.05-60.16-35.09-120.31-15.04-60.16-15.04-65.17-10.02-125.33v-125.32l10.02-130.34 25.07-125.33 15.03-60.16 15.04-60.16 20.05-60.15 25.07-60.16 30.07-55.15 30.06-55.14 35.1-55.14 40.1-55.15 40.1-50.13 40.1-50.13 50.1-45.118 45.2-45.117 50.1-40.105 50.1-40.105 50.1-35.092 55.2-35.091 55.1-30.079 55.2-30.079 55.1-25.065 60.1-25.066 60.2-20.052 130.3-30.079 125.3-15.039 130.4-10.026zm-5 2481.483h55.1l60.2-10.02 55.1-15.04 55.1-15.04 65.2-30.08 65.2-35.09 60.1-40.11 55.2-45.12 25-25.06 25.1-25.07 20-25.06 25.1-30.08 15-30.08 20.1-30.08 35.1-65.17 20-45.12 15.1-45.11 15-45.12 15-45.12 15.1-45.12 15-45.12 15.1-45.11 10-45.12 15-45.12 10-50.13 5.1-45.12 15-145.38v-160.42l-15-190.5-10.1-75.19-10-80.21-35.1-150.39-25-75.2-25.1-70.18-35.1-70.19-35.1-70.18-10-45.12-25.1-40.104-30.1-35.092-30-35.092-35.1-35.092-40.1-30.078-40.1-25.066-40.1-25.065-45.1-25.066-45.2-20.052-45.1-15.039-50.1-15.04-90.2-15.039-95.3-5.013-100.2 5.013-100.3 20.052-50.1 15.04-50.1 15.039-45.1 20.052-45.2 25.066-50.1 35.092-50.1 40.104-50.1 45.118-45.1 50.131-35.1 50.131-35.1 55.14-30.1 55.15-25.1 60.16-30 85.22-25.1 90.23-20.1 90.24-15 90.24-15 90.23-10.1 90.24-5 90.23v90.24l5 55.14v60.16l10.1 110.29 5 40.1 5 40.11 10 40.1 5 40.11 10.1 40.1 15 40.11 10 40.1 15.1 40.11 15 40.1 15 40.11 50.2 115.3 20 35.09 65.2 105.27 25 35.1 30.1 35.09 30.1 30.08 35.1 30.08 35.1 25.06 35.1 25.07 40.1 20.05 40.1 20.05 40.1 15.04 80.2 25.07 85.2 15.04 85.2 5.01h25.1v5.01zm-2411.13-10.03l110.28-10.02 115.29-15.04 105.27-30.08 55.14-20.05 50.13-20.06 55.13-25.06 50.13-30.08 45.12-25.07 50.12-35.09 45.12-30.08 40.1-40.1 45.11-35.09 40.1-40.11 55.14-55.14 15.04-10.03v10.03l-25.06 40.1-30.08 40.11-35.09 50.13-40.1 45.12-45.11 40.1-45.12 40.11-45.11 40.1-50.13 35.09-50.12 30.08-55.14 30.08-55.14 25.07-55.14 25.06-55.14 20.05-60.16 15.04-120.3 20.06-115.29 10.02h-105.27l-100.25-5.01-105.27-15.04-95.24-25.07-100.26-25.06-95.24-35.09-90.23-40.11-95.24-50.13-55.14-40.1-55.14-40.11-55.14-45.12-45.11-50.13-50.13-50.13-40.1-55.14-40.1-60.16-40.1-55.14-35.09-65.17-30.08-60.16-25.06-65.17-20.05-65.17-25.07-65.17-10.02-70.19-15.04-65.17-5.01-70.18-5.01-60.16V1799.7l30.07-160.42 25.07-105.27 15.03-55.15 45.12-100.26 20.05-50.13 25.06-45.12 30.08-50.13 60.15-90.24 30.08-45.11 35.09-40.11 35.09-40.1 35.08-40.108 40.11-40.105 40.1-35.091 45.11-35.092 40.1-35.092 45.12-30.078 50.12-30.079 45.12-25.066 95.24-50.131 100.25-40.104 105.27-35.092 100.25-20.052 110.28-10.027 105.27-5.013 105.27 5.013 100.25 15.04 90.23 15.039 95.24 25.065 90.23 30.079 15.04 5.013 70.18 30.079 75.19 30.078 70.17 25.066 55.14 5.013 25.07-5.013 15.04-5.013 10.02-10.026 20.05-25.066 15.04-25.065 25.06-45.118 5.02-10.027 5.01 676.773-10.03-10.03-10.02-20.05-10.03-20.05-35.09-65.18-35.09-65.17-35.08-65.17-40.11-60.15-30.07-40.108-30.08-35.092-35.09-35.091-35.09-35.092-40.1-30.079-40.1-30.078-40.1-25.066-40.1-25.065-45.12-20.053-45.11-20.052-45.12-15.039-50.12-15.04-95.24-15.039-95.24-5.013-80.21 5.013-75.19 15.039-75.19 20.053-75.19 30.078-70.18 35.092-35.09 20.052-30.07 25.066-30.08 25.066-30.07 25.065-30.08 25.066-25.06 30.078-45.12 45.118-45.11 50.131-35.09 55.14-35.09 55.15-35.09 55.14-30.08 55.15-55.14 120.31-20.05 65.17-35.09 125.33-25.06 125.33-10.02 130.34v160.42l15.03 135.35 10.03 45.12 5.01 45.12 10.03 45.11 15.03 45.12 10.03 45.12 15.04 45.12 15.04 40.1 35.09 85.22 25.06 45.12 20.05 40.11 30.08 45.12 30.07 45.11 30.08 40.11 40.1 40.1 40.1 40.11 35.09 35.09 45.12 35.09 45.11 30.08 45.11 30.08 50.13 25.06 45.12 25.07 55.13 20.05 50.13 15.04 50.13 15.04 105.27 15.04 45.11 5.01z"/></g><defs><clipPath id="clip0"><path fill="#fff" d="M0 0h17760v4592H0z"/></clipPath></defs></svg>