<svg width="170" height="39" viewBox="0 0 170 39" fill="none" xmlns="http://www.w3.org/2000/svg"><mask id="mask0" maskUnits="userSpaceOnUse" x="0" y="0" width="170" height="39"><path fill="#C4C4C4" d="M0 0h169.966v38.203H0z"/></mask><g mask="url(#mask0)" fill-rule="evenodd" clip-rule="evenodd" fill="#ABABAB"><path d="M23.18 17.957v-2.872h3.115c1.246 0 1.973.532 1.973 1.49 0 .85-.83 1.383-2.076 1.383H23.18zm-2.907 8.296h2.907v-5.317h3.01l2.077 5.317h3.115l-2.284-5.955.104-.107c1.141-.851 1.868-2.34 1.868-3.723 0-2.658-1.869-4.36-4.672-4.36H20.27v14.145h.002zM33.77 12.108h10.176v2.977h-7.164v2.128h3.84v2.977h-3.84v3.19h7.267v2.873H33.77V12.108zm17.236 8.082l1.453-3.51 1.454 3.51h-2.907zm-2.492 6.063l1.35-3.085h5.19l1.35 3.085h3.01l-5.71-14.145h-2.386l-5.815 14.145h3.01zm12.874-14.145H64.4v11.273h7.269v2.872h-10.28V12.108zm15.263 9.358c1.35 1.702 2.18 2.127 3.53 2.127 1.455 0 2.493-.638 2.493-1.596 0-.744-.623-1.17-2.389-1.596-2.491-.637-3.425-1.168-4.152-2.232-.312-.638-.52-1.277-.52-2.021 0-2.446 1.87-4.148 4.569-4.148 1.973 0 4.05 1.064 5.295 2.765L83.4 16.573c-1.453-1.276-2.076-1.595-3.322-1.595-1.039 0-1.661.425-1.661 1.063 0 .638.415.957 1.557 1.17.311.106.727.212 1.246.425l1.764.532c1.454.532 2.493 2.02 2.493 3.722 0 2.659-2.18 4.573-5.088 4.573-1.557 0-3.218-.638-4.257-1.489-.415-.319-.83-.85-1.454-1.489-.207-.106-.207-.212-.414-.425l2.387-1.594zm12.252-9.359h2.907v14.145h-2.907V12.108zm6.956 0h2.7l3.426 7.658 3.53-7.658h2.907v14.145h-2.907v-7.125l-3.53 7.125-3.322-7.019v7.02H95.86V12.106zm19.624 5.85v-2.872h3.53c1.142 0 1.765.532 1.765 1.489 0 .851-.727 1.383-1.869 1.383h-3.426zm-2.907 8.295h3.011v-5.317h3.426c2.7 0 4.672-1.808 4.672-4.361 0-2.659-1.868-4.467-4.672-4.467h-6.437v14.145zm13.601-14.144h3.01V23.38h7.269v2.872h-10.279V12.108zm12.459 0h10.071v2.977h-7.164v2.127h3.946v2.978h-3.946v3.19h7.372v2.872h-10.279V12.108z"/></g></svg>