<svg width="75" height="28" viewBox="0 0 75 28" fill="none" xmlns="http://www.w3.org/2000/svg"><path d="M29.651 10.418v-.028a2.183 2.183 0 00-.137-.853 1.858 1.858 0 00-.41-.625 2.544 2.544 0 00-.671-.455 5.453 5.453 0 00-.908-.341c-.286-.085-.522-.17-.709-.227a2.058 2.058 0 01-.447-.2.651.651 0 01-.224-.241.946.946 0 01-.062-.327v-.014c0-.185.075-.37.211-.469.137-.128.36-.185.647-.185.298 0 .584.071.858.2.31.141.596.326.87.553l.758-1.264a3.794 3.794 0 00-1.131-.725 3.65 3.65 0 00-1.343-.256c-.323 0-.634.057-.945.17-.273.1-.522.256-.733.47a2.11 2.11 0 00-.473.724 2.654 2.654 0 00-.174.938v.029c-.012.327.05.653.162.952.1.256.249.469.448.64.21.184.447.326.696.426.298.127.609.227.92.312.273.085.51.157.684.228.149.056.285.127.41.213a.66.66 0 01.199.227.72.72 0 01.05.284v.029a.633.633 0 01-.25.526c-.173.127-.41.184-.708.184-.36 0-.72-.085-1.057-.256a4.546 4.546 0 01-.932-.682l-.87 1.18c.385.398.845.71 1.33.924.485.199.982.298 1.492.298.335 0 .671-.043.994-.156.274-.1.535-.256.771-.455.212-.199.386-.455.498-.739.124-.313.186-.654.186-1.009zm7.758-1.549v-.028c0-.526-.087-1.052-.261-1.535a3.953 3.953 0 00-.734-1.236 3.561 3.561 0 00-1.119-.839 3.433 3.433 0 00-2.847 0c-.845.384-1.517 1.151-1.865 2.103a4.546 4.546 0 00-.273 1.52v.03c0 .525.087 1.05.261 1.534.174.469.423.881.733 1.236.324.356.697.64 1.12.839.447.213.932.312 1.417.312.484 0 .97-.1 1.43-.312.845-.384 1.504-1.151 1.864-2.103.187-.484.274-.995.274-1.52zm-1.542.029c0 .312-.05.625-.15.923-.099.284-.235.54-.41.753a1.82 1.82 0 01-1.442.696c-.285 0-.559-.056-.808-.184a2.217 2.217 0 01-1.056-1.279c-.1-.298-.15-.611-.15-.924v-.028c0-.313.05-.625.15-.924.1-.284.236-.54.41-.753a1.82 1.82 0 011.442-.696c.274 0 .56.057.808.184.485.242.87.711 1.057 1.28.1.298.15.61.15.923v.029zm8.23.454V5.046H42.63V9.41c0 .611-.124 1.066-.385 1.378-.261.313-.61.455-1.057.455-.447 0-.808-.156-1.057-.469-.248-.312-.385-.781-.385-1.407V5.061h-1.467v4.348c0 1.123.261 1.975.77 2.53.51.554 1.22.852 2.114.852.41 0 .82-.07 1.206-.213a2.37 2.37 0 00.92-.64c.261-.298.46-.667.584-1.065.175-.483.237-.995.224-1.52zm6.8 3.325L49.27 9.963c.41-.17.77-.469 1.032-.852.261-.384.398-.896.398-1.507v-.028c0-.796-.224-1.407-.66-1.847-.434-.441-1.056-.668-1.852-.668h-3.045v7.617h1.467v-2.445h1.156l1.43 2.444h1.703zM49.22 7.676c.013.299-.1.583-.286.782-.199.199-.472.298-.833.298h-1.479V6.567h1.455c.36 0 .646.085.845.27.199.185.298.455.298.81v.028zm8.355 3.766l-.932-1.08a4.034 4.034 0 01-.784.654c-.26.156-.584.241-.97.241-.534.015-1.044-.255-1.392-.71a2.425 2.425 0 01-.398-.767 2.916 2.916 0 01-.149-.924v-.029c0-.312.05-.625.15-.923.086-.284.223-.54.397-.753.174-.214.386-.398.61-.512.248-.128.509-.185.77-.185.31 0 .622.071.908.228.286.17.56.383.795.625l.933-1.236a4.253 4.253 0 00-.498-.484 3.237 3.237 0 00-.584-.369 3.144 3.144 0 00-.696-.242 4.39 4.39 0 00-.858-.085c-.485 0-.957.1-1.405.313-.41.199-.783.483-1.094.852-.31.356-.547.782-.709 1.25a4.554 4.554 0 00-.26 1.536v.028c0 .526.087 1.052.26 1.535.324.938.983 1.69 1.803 2.075.435.213.895.312 1.368.298.298 0 .584-.028.87-.1a3.041 3.041 0 001.33-.696c.187-.142.373-.327.535-.54zm2.387 1.236V5.062h-1.467v7.617h1.467zm7.285 0V5.062h-1.442v4.69l-3.12-4.69h-1.356v7.617h1.443V7.832l3.232 4.846h1.243zm7.335-1.08v-3.31h-2.897v1.449h1.48v1.094c-.373.313-.833.455-1.38.455-.274 0-.56-.057-.808-.185a1.759 1.759 0 01-.634-.511 2.487 2.487 0 01-.423-.768c-.1-.312-.15-.64-.15-.966v-.029c0-.312.05-.625.15-.923a2.241 2.241 0 011.02-1.265c.236-.128.484-.199.746-.185.174 0 .348.014.522.057.149.029.298.085.447.156.137.071.274.143.398.242.137.1.261.213.385.327l.92-1.28a3.927 3.927 0 00-.534-.44 3.136 3.136 0 00-.597-.326 3.813 3.813 0 00-.684-.2 5.308 5.308 0 00-.808-.07c-.485 0-.957.099-1.405.312-1.28.611-2.1 2.046-2.1 3.624v.028c0 .54.086 1.066.26 1.563.162.47.41.882.721 1.237.311.355.697.625 1.107.81.46.199.932.298 1.43.298.609 0 1.156-.114 1.628-.355a4.236 4.236 0 001.206-.838zm-45.589 8.285v-4.988h-1.504v4.903c0 .44-.075.767-.236.966-.162.2-.373.299-.66.299-.223 0-.447-.071-.646-.2a2.813 2.813 0 01-.572-.553l-.92 1.179c.249.327.535.597.87.81.349.227.784.341 1.306.341a2.8 2.8 0 00.957-.17c.274-.1.535-.285.746-.512.212-.242.373-.526.485-.853.124-.412.174-.824.174-1.222zm8.118-1.18v-.028c0-.526-.087-1.037-.26-1.534a3.954 3.954 0 00-.734-1.237 3.563 3.563 0 00-1.12-.838 3.29 3.29 0 00-1.416-.313c-.485 0-.97.1-1.43.313-.845.383-1.504 1.15-1.865 2.103a4.546 4.546 0 00-.273 1.52v.029c0 .526.087 1.052.26 1.535.175.469.423.88.734 1.236.323.355.709.64 1.119.838a3.433 3.433 0 002.847 0c.845-.383 1.517-1.15 1.865-2.103a4.2 4.2 0 00.273-1.52zm-1.529.015c0 .313-.05.625-.149.924-.1.284-.236.54-.41.753a1.82 1.82 0 01-1.442.696c-.286 0-.56-.057-.808-.185a2.217 2.217 0 01-1.057-1.279c-.1-.298-.15-.61-.15-.923v-.029c0-.312.05-.625.15-.923a2.5 2.5 0 01.41-.754 1.82 1.82 0 011.442-.696c.274 0 .56.057.808.185.485.241.87.71 1.057 1.279.1.298.15.61.15.924v.028zm8.367.469V14.88h-1.467v4.363c0 .61-.124 1.066-.385 1.364-.249.298-.61.455-1.057.455-.448 0-.808-.157-1.057-.47-.248-.312-.385-.78-.385-1.406V14.88H38.13v4.348c0 1.123.26 1.976.77 2.53.51.568 1.219.853 2.114.853.41 0 .82-.071 1.206-.213.348-.128.659-.356.92-.64.261-.298.46-.668.584-1.066a4.39 4.39 0 00.224-1.506zm6.95 3.325l-1.629-2.714c.41-.17.77-.469 1.032-.853.261-.383.398-.895.398-1.506v-.028c0-.796-.224-1.407-.66-1.848-.434-.44-1.056-.668-1.852-.668h-3.045v7.617h1.467v-2.444h1.156l1.43 2.444h1.703zm-1.691-5.002c.012.299-.1.583-.286.782-.199.199-.472.298-.833.298h-1.48v-2.188h1.455c.36 0 .647.085.846.27.199.184.31.454.31.81l-.012.028zm8.566 5.002v-7.617H56.33v4.69l-3.12-4.69h-1.356v7.617h1.442v-4.846l3.233 4.846h1.243zm7.782 0l-2.859-7.673h-1.343l-2.86 7.673h1.493c.957-2.7 1.02-2.87 2.014-5.656 1.007 2.828 1.032 2.913 2.014 5.656h1.541zm5.508 0v-1.506h-3.32v-6.11h-1.466v7.616h4.786zM16.448 9.693L14.322 11.1l-1.89 1.25-2.213 1.464-2.2-1.478-1.343-.88-2.673-1.763-1.33-.88 7.559-4.989 4.886 3.226 1.417-.938 1.256-.838L10.23.286 0 7.036v3.524l2.673 1.776 1.343.881 2.673 1.763 3.543 2.344 6.216-4.107V9.694zM2.673 18.788v-2.913l-1.007-.668L0 14.113v6.451l2.673 1.748 1.343.881 3.543 2.345 2.673 1.762 2.673-1.762 3.543-2.345 1.343-.88 2.672-1.763V7.05l-2.2 1.45-.472.312v9.976l-1.343.881-6.216 4.107-3.543-2.345-2.673-1.762-1.343-.881z" fill="#ABABAB"/></svg>