<svg width="32" height="39" viewBox="0 0 32 39" fill="none" xmlns="http://www.w3.org/2000/svg"><path d="M4.997 5.146H0v26.793h4.997V5.146zm10.047 0h-4.971v26.793h4.97V5.146zm16.267 13.409H20.223v13.41h11.088v-13.41zm0-18.555H20.223v13.41h11.088V0zm-.078 38.924v-.24h-1.276v-2.32h-.26v2.56h1.536zm-2.707-.826h-.937l.469-1.36.468 1.36zm.573.826l-.911-2.56h-.235l-.91 2.56h.286l.208-.586h1.093l.208.586h.26zm-2.655-2.56h-.26v2.56h.26v-2.56zm-.937.24v-.24h-1.718v.24h.729v2.32h.26v-2.32h.729zm-2.369 2.32v-2.56h-.26v2.054l-1.327-2.053h-.26v2.56h.26V36.87l1.327 2.053h.26zm-2.602 0v-.24H19.26v-.933h1.093v-.24H19.26v-.906h1.276v-.24H19v2.56h1.536zm-2.473-2.56h-.26v2.56h.26v-2.56zm-1.301.72c0 .32-.209.48-.495.48h-.677v-.933h.677c.26-.026.469.134.495.454zm.312 1.84l-.599-1.173c.313-.053.547-.346.547-.693 0-.453-.312-.72-.729-.72h-.937v2.56h.26V37.75h.573l.573 1.147h.312v.026zm-2.499 0v-.24H13.3v-.933h1.067v-.24h-1.093v-.906h1.275v-.24h-1.535v2.56h1.561zm-2.524-1.813c0 .347-.209.507-.52.507h-.652v-1.013h.651c.312 0 .52.16.52.506zm.26 0c0-.453-.312-.746-.78-.746h-.938v2.56h.26v-1.067h.651c.495 0 .807-.293.807-.747zm-2.316 1.813l-.781-1.306.728-1.253H9.63l-.546 1.013-.547-1.013h-.312l.702 1.253-.754 1.306h.312l.599-1.066.598 1.066h.313zm-2.265 0v-.24H6.455v-.933h1.093v-.24H6.455v-.906H7.73v-.24H6.195v2.56H7.73zm-3.514 0v-2.56h-.26v1.147H2.76v-1.146H2.5v2.56h.26V37.75h1.197v1.173h.26zm-2.368-2.32v-.24H.13v.24h.73v2.32h.26v-2.32h.729z" fill="#ABABAB"/></svg>